<?xml version="1.0" encoding="UTF-8"?>
<svg id="_图层_1" data-name="图层 1" xmlns="http://www.w3.org/2000/svg" xmlns:xlink="http://www.w3.org/1999/xlink" viewBox="0 0 1199.99609 1071.51465">
  <defs>
    <style>
      .cls-1 {
        fill: url(#_未命名的渐变-4);
      }

      .cls-2 {
        fill: url(#_未命名的渐变);
      }

      .cls-3 {
        fill: url(#_未命名的渐变-3);
      }

      .cls-4 {
        fill: url(#_未命名的渐变-2);
      }
    </style>
    <linearGradient id="_未命名的渐变" data-name="未命名的渐变" x1="410.93188" y1="692.75537" x2="784.25928" y2="692.75537" gradientUnits="userSpaceOnUse">
      <stop offset="0" stop-color="#00f2fe"/>
      <stop offset="1" stop-color="#4facfe"/>
    </linearGradient>
    <linearGradient id="_未命名的渐变-2" data-name="未命名的渐变" x1="153.96899" y1="882.97058" x2="1199.99609" y2="882.97058" xlink:href="#_未命名的渐变"/>
    <linearGradient id="_未命名的渐变-3" data-name="未命名的渐变" x1="0" y1="580.04688" x2="492.19897" y2="580.04688" xlink:href="#_未命名的渐变"/>
    <linearGradient id="_未命名的渐变-4" data-name="未命名的渐变" x1="476.32153" y1="443.62671" x2="1147.97681" y2="443.62671" xlink:href="#_未命名的渐变"/>
  </defs>
  <polygon class="cls-2" points="410.93188 747.90845 551.53027 881.19482 738.0896 826.6687 784.25928 638.85571 643.66089 504.31592 456.89282 558.84204 410.93188 747.90845"/>
  <polygon class="cls-4" points="843.59082 694.42651 797.62988 883.7019 797.62988 883.7019 153.96899 1071.51465 1076.31982 1071.51465 1199.99609 1035.16382 843.59082 694.42651"/>
  <polygon class="cls-3" points="333.42529 769.6355 333.42529 769.6355 492.19897 117.61792 30.29248 917.54565 0 1042.47583 474.02344 904.17529 333.42529 769.6355"/>
  <polygon class="cls-1" points="663.08984 424.30225 1147.97681 887.25342 687.32373 89.62378 593.9397 0 476.32153 478.82861 663.08984 424.30225"/>
</svg>
