<?xml version="1.0" encoding="UTF-8"?>
<svg id="_图层_1" data-name="图层 1" xmlns="http://www.w3.org/2000/svg" xmlns:xlink="http://www.w3.org/1999/xlink" viewBox="0 0 1557.49665 1369.43164">
  <defs>
    <style>
      .cls-1 {
        fill: #55c0d3;
      }

      .cls-2 {
        fill: #00c1de;
      }

      .cls-3 {
        fill: #1a9ae0;
      }

      .cls-4 {
        fill: #29ccb6;
      }

      .cls-5 {
        opacity: .8;
      }

      .cls-6 {
        clip-path: url(#clippath-1);
      }

      .cls-7 {
        clip-path: url(#clippath);
      }

      .cls-8 {
        fill: none;
      }
    </style>
    <clipPath id="clippath">
      <rect class="cls-8" x="375.8677" y="282.93379" width="802.60787" height="803.3913"/>
    </clipPath>
    <clipPath id="clippath-1">
      <rect class="cls-8" x="607.65016" y="523.20498" width="339.50465" height="321.45295"/>
    </clipPath>
  </defs>
  <path class="cls-2" d="M210.99682,835.47175l-94.23603-202.0896L467.66057,154.66175c23.65221-32.59516,62.66383-50.78659,102.83648-47.95349L1085.73938,17.49036,520.8726,.28838c-40.17269-2.83308-79.18431,15.35835-102.83648,47.95349L0,614.40574l140.07277,254.1385,70.92406-33.07247v-.00002Zm1132.19266-312.12678l97.54644,209.18879-350.89982,478.72037c-23.65223,32.59511-62.66385,50.78655-102.83648,47.95349l-515.24232,89.2179,566.50621,20.71774c40.17267,2.83304,79.18429-15.35839,102.83648-47.95349l416.39665-569.67971-143.38309-261.23757-70.92407,33.07247Z"/>
  <g>
    <g>
      <g class="cls-7">
        <path class="cls-2" d="M806.81556,1085.2803h-59.54929c-3.91771,0-7.31318-2.87292-8.09653-6.52951l-16.4545-81.22708c-18.80487-3.39531-37.34894-8.09653-55.37014-14.88732l-54.58679,62.16093c-2.61181,2.87292-7.05175,3.65659-10.44722,1.8283l-51.71387-29.77464c-3.39547-2.08941-4.96249-6.00712-3.65659-9.92483l26.64029-78.35416c-14.88716-12.27552-28.46874-25.85694-40.7441-40.7441l-78.35416,26.37917c-3.65659,1.3059-7.83542-.26112-9.92499-3.65659l-29.51353-51.71371c-1.82814-3.39531-1.3059-7.83542,1.82814-10.1861l61.89966-54.32552c-6.52951-18.02152-11.49201-36.56527-14.88716-55.63142l-80.96596-16.19322c-3.91771-.78351-6.52951-4.17882-6.52951-8.09653v-59.54913c0-3.91771,2.87292-7.31302,6.52951-8.09661l80.96596-16.19322c3.39547-19.06615,8.35765-37.60998,14.88716-55.63142l-61.89966-54.58671c-2.87292-2.61181-3.65659-7.05191-1.82814-10.44722l29.51353-51.45259c2.08957-3.39531,6.00728-4.96241,9.92499-3.65651l78.61527,26.37925c12.27536-14.62613,25.85694-28.20746,40.7441-40.48298l-26.64029-78.35416c-1.3059-3.65651,.26112-7.83542,3.65659-9.92483l51.71387-29.77456c3.39547-2.08941,7.83542-1.3059,10.44722,1.8283l54.58679,62.16093c18.02152-6.52951,36.56527-11.49193,55.37014-14.88732l16.19306-81.22716c.78367-3.91771,4.17882-6.79071,8.09653-6.79071h59.8104c3.91771,0,7.31318,2.873,8.09653,6.52951l16.4545,81.22716c18.80487,3.1342,37.34894,8.09661,55.37014,14.62613l54.58679-62.16093c2.61181-2.873,7.05175-3.65651,10.44722-1.8283l51.71387,29.77456c3.39547,2.08941,4.96249,6.00712,3.65659,9.92483l-26.37917,78.35416c14.62605,12.27552,28.46874,25.85686,40.7441,40.48298l78.35416-26.37925c3.65659-1.3059,7.83542,.2612,9.92499,3.65651l29.77464,51.45259c2.08957,3.39531,1.3059,7.83542-1.56702,10.44722l-61.89966,54.32552c6.79063,18.02144,11.75312,36.82647,14.88716,55.89262l80.70484,16.19322c3.91771,.78351,6.79063,4.1789,6.79063,8.09661v59.8104c0,3.91771-2.87292,7.31302-6.52951,8.09653l-80.70484,16.19322c-3.13404,19.06615-8.35765,37.61006-14.88716,55.63142l61.89966,54.32552c2.87292,2.61181,3.65659,7.05191,1.82814,10.44722l-29.77464,51.71371c-2.08957,3.39531-6.00728,4.96249-9.92499,3.65659l-78.35416-26.37917c-12.27536,14.62605-25.85694,28.46874-40.7441,40.7441l26.37917,78.35416c1.3059,3.65659-.26112,7.83542-3.65659,9.92483l-51.71387,29.77464c-3.39547,1.8283-7.83542,1.3059-10.44722-1.8283l-54.58679-62.16093c-18.02152,6.52951-36.56527,11.49201-55.37014,14.88732l-16.4545,81.22708c-1.5667,3.91771-4.96186,6.52951-8.87956,6.52951h0Zm-52.75866-16.45434h45.96771l15.40971-77.30937v-.52239c-.26112-4.4401,2.35069-8.09653,6.52951-8.8802,21.93923-3.39531,43.3559-8.8802,63.98923-16.97673,3.13404-1.3059,6.79063-.26112,9.14132,2.35069l53.80312,61.37742,39.96075-22.98385-25.33438-74.95884s0-.26112-.26112-.26112c-2.35069-3.65659-2.08957-8.09653,1.3059-10.96961,17.23785-13.84254,33.1698-29.51337,47.01249-46.75138,2.08957-2.61181,5.74584-3.65659,9.14132-2.61181l77.30937,26.11805,22.98401-39.96059-61.11631-53.54201c-2.61181-2.35069-3.39547-6.00712-2.35069-9.14132,8.09653-20.37205,13.58126-41.78888,16.97673-63.46683,.52223-3.39531,3.13404-6.2684,6.52951-6.79063l79.66006-15.93195v-45.96771l-79.66006-15.93203c-3.39547-.78351-6.00728-3.39531-6.52951-6.79071-3.39547-21.67795-9.14132-43.09479-16.97673-63.46683-1.3059-3.1342-.26112-6.79071,2.35069-9.14132l61.11631-53.8032-22.98401-39.69947-76.00347,25.59566c-3.39547,1.8283-7.83542,1.04471-10.1861-2.08941-13.8427-17.23793-29.77464-33.16996-47.27361-47.01249-1.82814-1.5671-2.87292-3.65651-3.13404-6.00712,0-2.35061,.78367-4.70122,2.35069-6.26832l24.81215-73.65294-39.96075-22.98385-51.97499,59.28801h0c-1.82814,3.91771-6.00728,6.00712-10.1861,4.4401-20.89444-8.09661-42.83367-14.10373-65.03401-17.23793-2.61181-.2612-4.70138-1.8283-6.00728-4.1789-1.3059-2.08941-1.3059-4.96241-.52223-7.31302l-15.1486-75.21996h-46.22882l-15.40971,76.78706c0,.2612,0,.52239,.26112,1.04471,.26112,4.4401-2.08957,8.09661-6.52951,8.88012-22.20034,3.1342-44.13957,9.14132-65.03401,17.23793-2.08957,.78351-4.70138,.78351-6.79063-.2612-2.08957-1.04471-3.65659-2.873-4.17882-5.22361l-51.45244-58.50442-39.96075,22.98385,25.33438,74.95884s0,.2612,.26112,.2612c2.35069,3.65651,2.08957,8.35781-1.3059,10.96961-17.23785,13.84254-33.1698,29.51337-47.01249,47.01249-2.61181,3.1342-7.31318,4.1789-10.70834,1.8283l-75.48123-25.33454-22.98401,39.69947,61.11631,53.8032c2.61181,2.35061,3.39547,6.00712,2.35069,9.14132-7.83542,20.37205-13.58126,41.78888-16.97673,63.46683-.52223,3.39531-3.13404,6.26832-6.52951,6.79071l-79.92118,15.93203v45.96771l79.92118,16.19322c3.39547,.78351,6.00728,3.39531,6.52951,6.79063,3.39547,21.67795,8.8802,42.83367,16.97673,63.20572,1.3059,3.1342,.26112,7.05191-2.35069,9.14132l-61.11631,53.80312,22.98401,39.96059,77.30937-26.11805c3.39547-1.04479,6.79063,0,9.14132,2.61181,13.8427,17.23785,29.51353,32.90868,47.01249,46.75138,1.82814,1.3059,2.87292,3.39531,3.13404,5.746,.26112,2.35069-.52223,4.4401-2.08957,6.2684l-25.07327,74.17533,39.96075,22.98385,53.54233-61.63902c2.35069-2.61181,6.00728-3.39531,9.14132-2.35069,20.63332,8.09653,42.05,13.58142,63.98923,16.97673,2.35069,.26112,4.43994,1.56702,5.74584,3.65659,1.3059,2.08957,1.82814,4.4401,1.04479,6.52951l15.67083,76.52586Z"/>
      </g>
      <path class="cls-1" d="M776.51837,937.45219c-139.20935,0-252.56144-113.35241-252.56144-252.5616,0-139.73158,113.35241-253.34511,252.56144-253.34511,139.47046,0,253.08399,113.61353,253.08399,253.34511,0,139.20919-113.61353,252.5616-253.08399,252.5616h0Zm0-489.45228c-130.06803,0-236.10725,106.3005-236.10725,236.89068,0,130.06787,106.03923,236.10725,236.10725,236.10725,130.59026,0,236.62949-106.03923,236.62949-236.10725,.00032-130.59026-106.30034-236.89068-236.62949-236.89068h0Z"/>
    </g>
    <g class="cls-5">
      <g class="cls-6">
        <path class="cls-3" d="M946.93397,583.82384c0-18.4271-5.91715-33.72896-17.10839-44.26879-29.30849-27.57787-89.20279-17.74188-152.51762,20.37305-63.31763-38.13634-123.22501-47.98059-152.54938-20.37305-11.19194,10.53984-17.10841,25.84721-17.10841,44.26879,0,28.91168,13.81204,64.15809,38.15218,100.07312-24.34014,35.91779-38.15218,71.16417-38.15218,100.07588,0,18.4271,5.91647,33.72898,17.10841,44.26879,11.34786,10.67369,27.28112,15.75522,46.21196,15.75522,29.98474,0,67.50898-12.74729,106.31601-36.11446,38.80705,23.37269,76.33678,36.11446,106.32155,36.11446,18.93081,0,34.86406-5.08154,46.21196-15.75522,11.1919-10.53982,17.10841-25.84721,17.10841-44.26879,0-28.9117-13.81204-64.15809-38.15218-100.07588,24.35118-35.91504,38.15768-71.16144,38.15768-100.07312h0Zm-30.03097-30.5375c7.41806,6.9757,11.18366,17.25679,11.18366,30.5375,0,23.52311-11.332,53.04208-31.12198,83.66855-13.52633-17.71496-29.481-35.38716-47.47613-52.32788-17.73634-16.6937-36.04474-31.34619-54.27656-43.76158,52.1119-29.49964,100.14076-38.37648,121.69101-18.11659h0Zm-31.27859,130.61062c-13.67954,18.60444-30.24074,37.29238-49.06115,55.00182-19.17029,18.0462-39.33286,33.73999-59.2767,46.62393-19.93831-12.88946-40.09536-28.57774-59.26633-46.62393-18.81973-17.70945-35.38095-36.40291-49.0605-55.00182,13.67956-18.6017,30.24077-37.28962,49.0605-54.99909,19.17097-18.04617,39.33287-33.73447,59.27185-46.62391,19.93833,12.88392,40.1009,28.57774,59.27118,46.62391,18.82042,17.70947,35.38162,36.39738,49.06115,54.99909h0Zm-259.12758-100.07312c0-13.28071,3.76628-23.56179,11.18432-30.5375,7.91625-7.45325,19.39938-10.96558,33.35357-10.96558,24.031,0,55.37652,10.41285,88.3485,29.08698-18.23803,12.41058-36.54299,27.06307-54.28763,43.75128-17.99512,16.94142-33.94977,34.61289-47.47613,52.32786-19.78512-30.62095-31.12262-60.13993-31.12262-83.66304h0Zm11.18432,230.68098c-7.41804-6.97848-11.18432-17.25607-11.18432-30.53678,0-23.52383,11.33198-53.04279,31.12262-83.66859,13.52637,17.71428,29.48102,35.38646,47.47613,52.32788,17.73912,16.69301,36.04408,31.34552,54.27659,43.75608-52.11743,29.5155-100.14629,38.39162-121.69103,18.12142h0Zm290.40552-30.53198c0,13.28071-3.7656,23.56177-11.18366,30.5375-21.52886,20.30541-69.56808,11.4155-121.70205-18.11659,18.238-12.40987,36.54574-27.06789,54.2876-43.7616,17.99513-16.94072,33.9498-34.6129,47.47613-52.32787,19.78514,30.62649,31.12198,60.14545,31.12198,83.66856h0Zm0,0"/>
      </g>
      <path class="cls-4" d="M739.29584,674.39773c0,20.88506,16.93038,37.81543,37.81268,37.81543,20.88504,0,37.81544-16.93037,37.81544-37.81543s-16.9304-37.81473-37.81544-37.81473c-20.8823,0-37.81268,16.93036-37.81268,37.81473h0Zm0,0"/>
    </g>
  </g>
</svg>
