<?xml version="1.0" encoding="utf-8"?>
<!-- Generator: Adobe Illustrator 26.5.0, SVG Export Plug-In . SVG Version: 6.00 Build 0)  -->
<svg version="1.1" id="图层_1" xmlns="http://www.w3.org/2000/svg" xmlns:xlink="http://www.w3.org/1999/xlink" x="0px" y="0px"
	 viewBox="0 0 2000 2000" style="enable-background:new 0 0 2000 2000;" xml:space="preserve">
<style type="text/css">
	.st0{clip-path:url(#SVGID_00000098223306504909158230000011121443911005112740_);fill:#00C1DE;}
	.st1{clip-path:url(#SVGID_00000169547650826673583110000005508087887302644364_);fill:#00C1DE;}
	.st2{clip-path:url(#SVGID_00000127761819497494490380000018083175465297154444_);fill:#00C1DE;}
	.st3{fill:#55C0D3;}
	.st4{opacity:0.8;}
	.st5{clip-path:url(#SVGID_00000067954197610634358110000008062254950365409185_);fill:#1A9AE0;}
	.st6{fill:#29CCB6;}
	.st7{fill:none;stroke:#FFFFFF;stroke-miterlimit:10;}
</style>
<g>
	<g>
		<g>
			<g>
				<defs>
					
						<rect id="SVGID_1_" x="352.6" y="350.8" transform="matrix(0.9063 -0.4226 0.4226 0.9063 -329.2981 516.2845)" width="1294.3" height="1300"/>
				</defs>
				<clipPath id="SVGID_00000039125198246476828160000017946945320100806532_">
					<use xlink:href="#SVGID_1_"  style="overflow:visible;"/>
				</clipPath>
				<path style="clip-path:url(#SVGID_00000039125198246476828160000017946945320100806532_);fill:#00C1DE;" d="M506.4,1130.8
					l-82.1-176.1L730,537.6c20.6-28.4,54.6-44.3,89.6-41.8l448.9-77.7l-492.2-15c-35-2.5-69,13.4-89.6,41.8L322.5,938.2l122,221.4
					L506.4,1130.8L506.4,1130.8z M1492.9,858.8l85,182.3l-305.7,417.1c-20.6,28.4-54.6,44.3-89.6,41.8l-448.9,77.7l493.6,18.1
					c35,2.5,69-13.4,89.6-41.8l362.8-496.4L1554.7,830L1492.9,858.8z"/>
			</g>
			<g>
				<defs>
					
						<rect id="SVGID_00000059999685377741643000000012586955581117640112_" x="352.6" y="350.8" transform="matrix(0.9063 -0.4226 0.4226 0.9063 -329.2981 516.2845)" width="1294.3" height="1300"/>
				</defs>
				<clipPath id="SVGID_00000123409792971819039090000015340793842629981617_">
					<use xlink:href="#SVGID_00000059999685377741643000000012586955581117640112_"  style="overflow:visible;"/>
				</clipPath>
				<path style="clip-path:url(#SVGID_00000123409792971819039090000015340793842629981617_);fill:#00C1DE;" d="M1054.3,1225"/>
			</g>
		</g>
	</g>
	<g>
		<g>
			<g>
				<g>
					<defs>
						<rect id="SVGID_00000083794515463540541100000003221895024572911540_" x="650" y="649.3" width="699.3" height="700"/>
					</defs>
					<clipPath id="SVGID_00000105425122834212591900000012200245218629276857_">
						<use xlink:href="#SVGID_00000083794515463540541100000003221895024572911540_"  style="overflow:visible;"/>
					</clipPath>
					<path style="clip-path:url(#SVGID_00000105425122834212591900000012200245218629276857_);fill:#00C1DE;" d="M1025.5,1348.4
						h-51.9c-3.4,0-6.4-2.5-7.1-5.7l-14.3-70.8c-16.4-3-32.5-7.1-48.2-13l-47.6,54.2c-2.3,2.5-6.1,3.2-9.1,1.6l-45.1-25.9
						c-3-1.8-4.3-5.2-3.2-8.6l23.2-68.3c-13-10.7-24.8-22.5-35.5-35.5l-68.3,23c-3.2,1.1-6.8-0.2-8.6-3.2l-25.7-45.1
						c-1.6-3-1.1-6.8,1.6-8.9l53.9-47.3c-5.7-15.7-10-31.9-13-48.5l-70.5-14.1c-3.4-0.7-5.7-3.6-5.7-7.1v-51.9
						c0-3.4,2.5-6.4,5.7-7.1l70.5-14.1c3-16.6,7.3-32.8,13-48.5l-53.9-47.6c-2.5-2.3-3.2-6.1-1.6-9.1l25.7-44.8
						c1.8-3,5.2-4.3,8.6-3.2l68.5,23c10.7-12.7,22.5-24.6,35.5-35.3l-23.2-68.3c-1.1-3.2,0.2-6.8,3.2-8.6l45.1-25.9
						c3-1.8,6.8-1.1,9.1,1.6l47.6,54.2c15.7-5.7,31.9-10,48.2-13l14.1-70.8c0.7-3.4,3.6-5.9,7.1-5.9h52.1c3.4,0,6.4,2.5,7.1,5.7
						l14.3,70.8c16.4,2.7,32.5,7.1,48.2,12.7l47.6-54.2c2.3-2.5,6.1-3.2,9.1-1.6l45.1,25.9c3,1.8,4.3,5.2,3.2,8.6l-23,68.3
						c12.7,10.7,24.8,22.5,35.5,35.3l68.3-23c3.2-1.1,6.8,0.2,8.6,3.2l25.9,44.8c1.8,3,1.1,6.8-1.4,9.1l-53.9,47.3
						c5.9,15.7,10.2,32.1,13,48.7l70.3,14.1c3.4,0.7,5.9,3.6,5.9,7.1v52.1c0,3.4-2.5,6.4-5.7,7.1l-70.3,14.1
						c-2.7,16.6-7.3,32.8-13,48.5l53.9,47.3c2.5,2.3,3.2,6.1,1.6,9.1l-25.9,45.1c-1.8,3-5.2,4.3-8.6,3.2l-68.3-23
						c-10.7,12.7-22.5,24.8-35.5,35.5l23,68.3c1.1,3.2-0.2,6.8-3.2,8.6l-45.1,25.9c-3,1.6-6.8,1.1-9.1-1.6l-47.6-54.2
						c-15.7,5.7-31.9,10-48.2,13l-14.3,70.8C1031.9,1346.2,1028.9,1348.4,1025.5,1348.4L1025.5,1348.4z M979.6,1334.1h40.1
						l13.4-67.4c0-0.2,0-0.2,0-0.5c-0.2-3.9,2-7.1,5.7-7.7c19.1-3,37.8-7.7,55.8-14.8c2.7-1.1,5.9-0.2,8,2l46.9,53.5l34.8-20
						l-22.1-65.3c0,0,0-0.2-0.2-0.2c-2-3.2-1.8-7.1,1.1-9.6c15-12.1,28.9-25.7,41-40.7c1.8-2.3,5-3.2,8-2.3l67.4,22.8l20-34.8
						l-53.3-46.7c-2.3-2-3-5.2-2-8c7.1-17.8,11.8-36.4,14.8-55.3c0.5-3,2.7-5.5,5.7-5.9l69.4-13.9v-40.1l-69.4-13.9
						c-3-0.7-5.2-3-5.7-5.9c-3-18.9-8-37.5-14.8-55.3c-1.1-2.7-0.2-5.9,2-8l53.3-46.9l-20-34.6l-66.2,22.3c-3,1.6-6.8,0.9-8.9-1.8
						c-12.1-15-25.9-28.9-41.2-41c-1.6-1.4-2.5-3.2-2.7-5.2c0-2,0.7-4.1,2-5.5l21.6-64.2l-34.8-20l-45.3,51.7l0,0
						c-1.6,3.4-5.2,5.2-8.9,3.9c-18.2-7.1-37.3-12.3-56.7-15c-2.3-0.2-4.1-1.6-5.2-3.6c-1.1-1.8-1.1-4.3-0.5-6.4l-13.2-65.5h-40.3
						l-13.4,66.9c0,0.2,0,0.5,0.2,0.9c0.2,3.9-1.8,7.1-5.7,7.7c-19.3,2.7-38.5,8-56.7,15c-1.8,0.7-4.1,0.7-5.9-0.2
						c-1.8-0.9-3.2-2.5-3.6-4.6l-44.8-51l-34.8,20l22.1,65.3c0,0,0,0.2,0.2,0.2c2,3.2,1.8,7.3-1.1,9.6c-15,12.1-28.9,25.7-41,41
						c-2.3,2.7-6.4,3.6-9.3,1.6l-65.8-22.1l-20,34.6l53.3,46.9c2.3,2,3,5.2,2,8c-6.8,17.8-11.8,36.4-14.8,55.3
						c-0.5,3-2.7,5.5-5.7,5.9l-69.6,13.9v40.1l69.6,14.1c3,0.7,5.2,3,5.7,5.9c3,18.9,7.7,37.3,14.8,55.1c1.1,2.7,0.2,6.1-2,8
						l-53.3,46.9l20,34.8l67.4-22.8c3-0.9,5.9,0,8,2.3c12.1,15,25.7,28.7,41,40.7c1.6,1.1,2.5,3,2.7,5c0.2,2-0.5,3.9-1.8,5.5
						l-21.8,64.6l34.8,20l46.7-53.7c2-2.3,5.2-3,8-2c18,7.1,36.6,11.8,55.8,14.8c2,0.2,3.9,1.4,5,3.2s1.6,3.9,0.9,5.7L979.6,1334.1z
						"/>
				</g>
			</g>
			<path class="st3" d="M999.1,1219.6c-121.3,0-220.1-98.8-220.1-220.1c0-121.7,98.8-220.7,220.1-220.7
				c121.5,0,220.5,99,220.5,220.7C1219.6,1120.9,1120.6,1219.6,999.1,1219.6L999.1,1219.6z M999.1,793.2
				c-113.3,0-205.7,92.6-205.7,206.4c0,113.3,92.4,205.7,205.7,205.7c113.8,0,206.2-92.4,206.2-205.7
				C1205.3,885.8,1112.7,793.2,999.1,793.2L999.1,793.2z"/>
		</g>
		<g class="st4">
			<g>
				<defs>
					<rect id="SVGID_00000016035284168723466660000005334340200148473781_" x="852" y="858.7" width="295.8" height="280.1"/>
				</defs>
				<clipPath id="SVGID_00000149354712428299865320000014130958634344277673_">
					<use xlink:href="#SVGID_00000016035284168723466660000005334340200148473781_"  style="overflow:visible;"/>
				</clipPath>
				<path style="clip-path:url(#SVGID_00000149354712428299865320000014130958634344277673_);fill:#1A9AE0;" d="M1147.6,911.5
					c0-16.1-5.2-29.4-14.9-38.6c-25.5-24-77.7-15.5-132.9,17.8c-55.2-33.2-107.4-41.8-132.9-17.8c-9.8,9.2-14.9,22.5-14.9,38.6
					c0,25.2,12,55.9,33.2,87.2c-21.2,31.3-33.2,62-33.2,87.2c0,16.1,5.2,29.4,14.9,38.6c9.9,9.3,23.8,13.7,40.3,13.7
					c26.1,0,58.8-11.1,92.6-31.5c33.8,20.4,66.5,31.5,92.6,31.5c16.5,0,30.4-4.4,40.3-13.7c9.8-9.2,14.9-22.5,14.9-38.6
					c0-25.2-12-55.9-33.2-87.2C1135.6,967.4,1147.6,936.7,1147.6,911.5L1147.6,911.5z M1121.4,884.9c6.5,6.1,9.7,15,9.7,26.6
					c0,20.5-9.9,46.2-27.1,72.9c-11.8-15.4-25.7-30.8-41.4-45.6c-15.5-14.5-31.4-27.3-47.3-38.1
					C1060.8,875,1102.7,867.2,1121.4,884.9L1121.4,884.9z M1094.2,998.7c-11.9,16.2-26.3,32.5-42.7,47.9
					c-16.7,15.7-34.3,29.4-51.6,40.6c-17.4-11.2-34.9-24.9-51.6-40.6c-16.4-15.4-30.8-31.7-42.7-47.9c11.9-16.2,26.3-32.5,42.7-47.9
					c16.7-15.7,34.3-29.4,51.6-40.6c17.4,11.2,34.9,24.9,51.6,40.6C1067.8,966.2,1082.3,982.5,1094.2,998.7L1094.2,998.7z
					 M868.4,911.5c0-11.6,3.3-20.5,9.7-26.6c6.9-6.5,16.9-9.6,29.1-9.6c20.9,0,48.2,9.1,77,25.3c-15.9,10.8-31.8,23.6-47.3,38.1
					c-15.7,14.8-29.6,30.2-41.4,45.6C878.3,957.7,868.4,932,868.4,911.5L868.4,911.5z M878.2,1112.5c-6.5-6.1-9.7-15-9.7-26.6
					c0-20.5,9.9-46.2,27.1-72.9c11.8,15.4,25.7,30.8,41.4,45.6c15.5,14.5,31.4,27.3,47.3,38.1
					C938.8,1122.4,896.9,1130.2,878.2,1112.5L878.2,1112.5z M1131.2,1085.9c0,11.6-3.3,20.5-9.7,26.6c-18.8,17.7-60.6,9.9-106-15.8
					c15.9-10.8,31.8-23.6,47.3-38.1c15.7-14.8,29.6-30.2,41.4-45.6C1121.3,1039.7,1131.2,1065.4,1131.2,1085.9L1131.2,1085.9z
					 M1131.2,1085.9"/>
			</g>
			<path class="st6" d="M966.7,990.4c0,18.2,14.8,32.9,32.9,32.9c18.2,0,32.9-14.8,32.9-32.9c0-18.2-14.8-32.9-32.9-32.9
				C981.4,957.5,966.7,972.2,966.7,990.4L966.7,990.4z M966.7,990.4"/>
		</g>
	</g>
</g>
<rect x="117.5" y="100.5" class="st7" width="1800" height="1800"/>
</svg>
