<?xml version="1.0" encoding="UTF-8"?>
<svg id="_图层_1" data-name="图层 1" xmlns="http://www.w3.org/2000/svg" xmlns:xlink="http://www.w3.org/1999/xlink" viewBox="0 0 1794.03784 678.18919">
  <defs>
    <style>
      .cls-1 {
        fill: #7e318e;
      }

      .cls-2 {
        fill: url(#_未命名的渐变_2);
      }

      .cls-2, .cls-3, .cls-4, .cls-5, .cls-6 {
        fill-rule: evenodd;
      }

      .cls-3 {
        fill: url(#_未命名的渐变_5);
      }

      .cls-4 {
        fill: url(#_未命名的渐变);
      }

      .cls-7 {
        fill: none;
        opacity: .1;
        stroke: #fff;
        stroke-miterlimit: 10;
      }

      .cls-5 {
        fill: url(#_未命名的渐变-2);
      }

      .cls-6 {
        fill: url(#_未命名的渐变_4);
      }
    </style>
    <linearGradient id="_未命名的渐变" data-name="未命名的渐变" x1="-389.33314" y1="1071.52137" x2="-203.84315" y2="1178.03137" gradientTransform="translate(861.03395 1860.5153) scale(1.418 -1.418)" gradientUnits="userSpaceOnUse">
      <stop offset="0" stop-color="#aa65a6"/>
      <stop offset=".61" stop-color="#7e318e"/>
      <stop offset="1" stop-color="#472b8a"/>
    </linearGradient>
    <linearGradient id="_未命名的渐变_2" data-name="未命名的渐变 2" x1="-267.2196" y1="928.91393" x2="-267.2196" y2="1130.58391" gradientTransform="translate(861.03395 1860.5153) scale(1.418 -1.418)" gradientUnits="userSpaceOnUse">
      <stop offset="0" stop-color="#fed72b"/>
      <stop offset=".67" stop-color="#ed6f17"/>
      <stop offset=".72" stop-color="#ea6718"/>
      <stop offset=".81" stop-color="#e0511b"/>
      <stop offset=".91" stop-color="#d12e1f"/>
      <stop offset=".99" stop-color="#c30d23"/>
    </linearGradient>
    <linearGradient id="_未命名的渐变-2" data-name="未命名的渐变" x1="-205.46984" y1="1144.58692" x2="-156.50709" y2="1172.70177" xlink:href="#_未命名的渐变"/>
    <linearGradient id="_未命名的渐变_4" data-name="未命名的渐变 4" x1="-256.90459" y1="1062.65891" x2="-116.1246" y2="1062.65891" gradientTransform="translate(861.03395 1860.5153) scale(1.418 -1.418)" gradientUnits="userSpaceOnUse">
      <stop offset="0" stop-color="#fed72b"/>
      <stop offset=".67" stop-color="#ed6f17"/>
      <stop offset=".72" stop-color="#ea6718"/>
      <stop offset=".81" stop-color="#e0511b"/>
      <stop offset=".91" stop-color="#d12e1f"/>
      <stop offset=".99" stop-color="#c30d23"/>
    </linearGradient>
    <linearGradient id="_未命名的渐变_5" data-name="未命名的渐变 5" x1="-137.57228" y1="1088.99299" x2="-191.69228" y2="953.71298" gradientTransform="translate(861.03395 1860.5153) scale(1.418 -1.418)" gradientUnits="userSpaceOnUse">
      <stop offset="0" stop-color="#aa65a6"/>
      <stop offset=".61" stop-color="#7e318e"/>
      <stop offset="1" stop-color="#472b8a"/>
    </linearGradient>
  </defs>
  <rect class="cls-7" x=".5" y=".5" width="1793.03784" height="677.18919"/>
  <path class="cls-1" d="M858.7101,493.40342h-20.41176v-50.47059h20.64706c13.60785,.74509,20.68628,8.92157,21.2353,24.52941h0c-.70588,16.94118-7.86275,25.58823-21.47059,25.94118h0Zm-.82353-44.94117h-12.70588v39.17647h13.2353c9.56863-.58824,14.52941-7.11765,14.88235-19.58823h0c-.19608-12.70588-5.33333-19.23529-15.41176-19.58823h0Zm55.11765,23.17647h-16.52941v21.76471h-6.88235v-50.47059h23.41177c11.21568,0,16.82353,4.5098,16.82353,13.52941h0c0,5.4902-2.39216,9.52941-7.17647,12.11765h0c4.03921,1.09804,6.05882,4.31372,6.05882,9.64706h0l.58824,9.11765c-.19608,2.54902,.62746,4.19608,2.47059,4.94118h0v1.11765h-8.52941c-.58824-2.39216-.96079-6.62745-1.11765-12.70588h0c.15686-6.03922-2.88235-9.05882-9.11764-9.05882h0Zm.52941-23.17647h-17.05882v17.35294h16c6.78432,0,10.17647-2.94118,10.17647-8.82353h0c0-5.68627-3.03921-8.52941-9.11765-8.52941h0Zm59.29412,44.94117l-4.94118-14.58824h-20.41176l-5.23529,14.58824h-6.88235l19-50.47059h7.70588l18.2353,50.47059h-7.47059Zm-15.17647-43l-7.94118,22.29412h15.70588l-7.47058-22.29412h-.29412Zm66.47058,21.76471h-15.41176v-5.76471h22.05882v27h-4.41176l-1.64705-6.35294c-3.88235,4.58824-9.41178,6.98039-16.58824,7.17647h0c-6.7843,0-12.01959-1.7451-15.70588-5.23529h0c-5.52941-5.13725-8.19608-12.21569-7.99999-21.23529h0c1.29411-16.7451,9.29412-25.47058,24-26.17647h0c12.50979,.70589,19.68626,6.21569,21.52941,16.52941h-6.64706c-1.84315-6.98039-6.90195-10.56863-15.17647-10.76471h0c-10.47059,.7451-15.98039,7.64706-16.52941,20.70588h0c0,13.96078,5.60784,20.94118,16.82353,20.94118h0c4.03921,0,7.5294-1.09804,10.47058-3.29412h0c3.68628-2.94118,5.43139-7.45098,5.23529-13.52941h0Zm57.05883-3.88235h0c-.70588-13.21568-6.58823-20.19608-17.64706-20.94118h0c-11.17646,.54902-17.05881,7.52941-17.64706,20.94118h0c.58825,13.05882,6.4706,19.86274,17.64706,20.41176h0c11.05883-.70588,16.94118-7.5098,17.64706-20.41176Zm6.94118,0h0c-1.09805,16.7451-9.29411,25.39216-24.58824,25.94118h0c-15.41176-.54902-23.66667-9.19608-24.7647-25.94118h0c.90197-17.45098,9.15684-26.35294,24.7647-26.70588h0c15.29413,.54902,23.49019,9.45098,24.58824,26.70588Zm16.23528-25.35294l25.35295,40.82353v-40.82353h6.64706v50.47059h-7.70589l-25.64706-40.82353h-.29411v40.82353h-6.58823v-50.47059h8.23528Zm99.82353,29.23529h-15.41176v-5.76471h22.0588v27h-4.41174l-1.70589-6.35294c-3.84315,4.58824-9.35294,6.98039-16.52942,7.17647h0c-6.78433,0-12.01959-1.7451-15.70587-5.23529h0c-5.52943-5.13725-8.19606-12.21569-8-21.23529h0c1.29412-16.7451,9.29413-25.47058,24.00001-26.17647h0c12.50981,.70589,19.68626,6.21569,21.52939,16.52941h-6.64704c-1.84315-6.98039-6.90198-10.56863-15.17648-10.76471h0c-10.47058,.7451-15.98037,7.64706-16.5294,20.70588h0c0,13.96078,5.60785,20.94118,16.82353,20.94118h0c4.0392,0,7.5294-1.09804,10.47058-3.29412h0c3.68628-2.94118,5.43134-7.45098,5.23529-13.52941h0Zm50.4706,21.23529l-4.9412-14.58824h-20.41173l-5.23534,14.58824h-6.94118l19.05886-50.47059h7.70587l18.17649,50.47059h-7.41178Zm-15.17648-43l-8,22.29412h15.70587l-7.41173-22.29412h-.29414Zm77.23528-7.47059v50.47059h-6.64704v-42.47059h0l-14.35296,42.47059h-6.88234l-14.05882-42.47059h-.29414c0,2.03922,.09806,5.07843,.29414,9.11765h0v3.58824h0v29.7647h-6.88234v-50.47059h9.94119l14.58821,42.7647,14.35296-42.7647h9.94115Zm17.64706,44.41176h30.29413v6.05882h-37.2353v-50.47059h36.70591v5.82353h-29.76474v15.70588h27.52941v6.05882h-27.52941v16.82353Z"/>
  <path class="cls-1" d="M919.43068,294.27107h-50.41176v30.82353h36.41176c1.56863,0,2.90197,.52941,4,1.58824,1.05881,1.09804,1.58824,2.43138,1.58824,4s-.52942,2.88235-1.58824,3.94118c-1.09803,1.09804-2.43138,1.64706-4,1.64706h-36.41176v22.41176c0,10.11765,3.54901,18.70588,10.64706,25.76471,7.05883,7.09804,15.64706,10.64706,25.7647,10.64706h14.00001c1.56861,0,2.90196,.54902,4,1.64706,1.05881,1.05882,1.58823,2.37255,1.58823,3.94118s-.52941,2.88235-1.58823,3.94117c-1.09804,1.09804-2.43139,1.64706-4,1.64706h-14.00001c-13.05882,0-24.2549-4.66667-33.58823-14-9.33333-9.33333-14-20.52941-14-33.58823h0v-64.41176h-16.82353v64.41176c0,13.05882-4.66666,24.2549-14,33.58823-9.33333,9.33333-20.52941,14-33.58823,14h-14c-1.56863,0-2.88235-.54902-3.94118-1.64706-1.09804-1.05882-1.64706-2.37255-1.64706-3.94117s.54902-2.88235,1.64706-3.94118c1.05882-1.09804,2.37255-1.64706,3.94118-1.64706h14c10.11765,0,18.70588-3.54902,25.76471-10.64706,7.09804-7.05882,10.64706-15.64706,10.64706-25.76471h0v-64.41176h-50.41176c-1.56863,0-2.88235-.54902-3.94118-1.64706-1.09804-1.05883-1.64706-2.37255-1.64706-3.94118s.54902-2.90196,1.64706-4c1.05882-1.05882,2.37255-1.58823,3.94118-1.58823h50.41176v-64.41177c0-1.56861,.54901-2.90196,1.64706-4,1.05883-1.05881,2.37256-1.58823,3.94118-1.58823s2.90196,.52941,4,1.58823c1.05882,1.09804,1.58824,2.43139,1.58824,4h0v64.41177h78.41176c1.56861,0,2.90196,.52941,4,1.58823,1.05881,1.09804,1.58823,2.43138,1.58823,4s-.52941,2.88235-1.58823,3.94118c-1.09804,1.09804-2.43139,1.64706-4,1.64706h0Zm-22.41176-61.58823h0v27.99999c0,1.52941-.52941,2.84315-1.58824,3.94118-1.09805,1.09804-2.43138,1.64706-4,1.64706-1.5294,0-2.84314-.54902-3.94118-1.64706-1.09804-1.09803-1.64706-2.41176-1.64706-3.94118h0v-27.99999c0-1.56863,.54902-2.90197,1.64706-4,1.09804-1.05881,2.41177-1.58824,3.94118-1.58824,1.56863,0,2.90195,.52942,4,1.58824,1.05883,1.09803,1.58824,2.43138,1.58824,4Zm176.47057,117.58823h-8.41177v36.41176c0,5.45098-1.90194,10.07843-5.70587,13.88235-3.84313,3.80392-8.49019,5.70589-13.94119,5.70588h0c-1.52942,0-2.84312-.54902-3.94117-1.64706-1.09803-1.05882-1.64703-2.37255-1.64705-3.94117,.00002-1.56863,.54902-2.88235,1.64705-3.94118,1.09805-1.09804,2.41174-1.64706,3.94117-1.64706h0c2.35295,0,4.35295-.82353,6-2.47059,1.60783-1.60784,2.41176-3.58824,2.41176-5.94118h0v-36.41176h-8.41177c-5.41173,0-10.03918-1.90196-13.88233-5.70588-3.80393-3.80392-5.70589-8.43137-5.70589-13.88235h0v-14c0-1.56863,.549-2.90196,1.64705-4,1.09805-1.05883,2.41179-1.58824,3.94119-1.58824,1.5686,0,2.90195,.52941,4,1.58824,1.09805,1.09804,1.64707,2.43137,1.64705,4h0v14c.00002,2.31373,.80391,4.29412,2.41176,5.94117,1.64705,1.64706,3.62744,2.47059,5.94117,2.47059h8.41177v-50.41176c0-1.56863,.54902-2.90196,1.64707-4,1.09805-1.05882,2.43135-1.58823,4-1.58823h0c6.19608,0,11.47059-2.17647,15.82352-6.52942,4.35295-4.39215,6.52939-9.68627,6.52942-15.88236h0v-13.99999c-.00002-6.2353-2.17646-11.52941-6.52942-15.88236-4.35293-4.35294-9.62744-6.52942-15.82352-6.5294-6.23528-.00001-11.52943,2.17646-15.88236,6.5294-4.35295,4.35295-6.52939,9.64706-6.52942,15.88236h0v13.99999c.00002,1.52941-.549,2.84315-1.64705,3.94118-1.09805,1.09804-2.4314,1.64706-4,1.64706-1.5294,0-2.84314-.54902-3.94119-1.64706-1.09805-1.09803-1.64705-2.41176-1.64705-3.94118h0v-13.99999c0-9.33333,3.27449-17.27451,9.82352-23.82352,6.5098-6.5098,14.45099-9.7647,23.82355-9.7647,9.33331,0,17.25486,3.2549,23.76469,9.7647,6.549,6.54902,9.82354,14.49019,9.82354,23.82352h0v13.99999c0,8.23529-2.68626,15.47058-8.05882,21.70589-5.37255,6.19608-12.01962,10-19.94119,11.41177h0v45.29412h8.41177c2.31373,0,4.29414-.82353,5.94119-2.47059,1.60785-1.64706,2.41174-3.62745,2.41176-5.94117h0v-14c-.00002-1.56863,.549-2.90196,1.64705-4,1.09803-1.05883,2.43138-1.58824,4-1.58824,1.5294,0,2.84314,.52941,3.94117,1.58824,1.09807,1.09804,1.64707,2.43137,1.64707,4h0v14c0,5.45098-1.90196,10.07843-5.70589,13.88235-3.84315,3.80392-8.4706,5.70588-13.88236,5.70588h0Zm-92.41176-131.58823v22.41176h8.35295c5.45098,0,10.07843,1.90196,13.88233,5.70589,3.84315,3.80392,5.7647,8.43137,5.7647,13.88235s-1.92155,10.07844-5.7647,13.88236c-3.8039,3.80393-8.43136,5.70588-13.88233,5.70588h0c-2.31373,0-4.29411,.82353-5.94119,2.47059-1.60785,1.60784-2.41176,3.58823-2.41176,5.94118h0v112c0,1.56863-.54902,2.88235-1.64705,3.94117-1.09805,1.09804-2.4314,1.64706-4,1.64706-1.5294,0-2.84314-.54902-3.94119-1.64706-1.09803-1.05882-1.64705-2.37255-1.64705-3.94117h0v-112c0-5.45098,1.90196-10.07843,5.70589-13.88235,3.84313-3.80393,8.47058-5.70589,13.88236-5.70589h0c2.35293,0,4.35293-.82353,5.99998-2.47059,1.60785-1.64705,2.41176-3.62745,2.41176-5.94118,0-2.35294-.80391-4.33333-2.41176-5.94117-1.64705-1.64706-3.64705-2.47059-5.99998-2.47059h-8.82353c-1.41177,7.92156-5.23529,14.56862-11.47059,19.94117-6.1961,5.37255-13.43137,8.05882-21.70589,8.05882h0c-1.52941,0-2.84315-.54902-3.94118-1.64706-1.09804-1.05883-1.64706-2.37255-1.64706-3.94118s.54902-2.90196,1.64706-4c1.09803-1.05883,2.41176-1.58824,3.94118-1.58824h0c6.23529,0,11.52939-2.17648,15.88235-6.5294,4.35295-4.39216,6.52942-9.68628,6.52942-15.88236h0v-28c0-1.56861,.54902-2.90196,1.64705-4,1.09805-1.05881,2.41179-1.58823,3.94119-1.58823,1.5686,0,2.90195,.52941,4,1.58823,1.09803,1.09804,1.64705,2.43139,1.64705,4h0Zm162.41174,120.41176h28.00001c1.52942,0,2.84312,.54902,3.94117,1.64706,1.09805,1.05882,1.6471,2.37255,1.6471,3.94117h0v28c0,9.33333-3.27454,17.27451-9.82356,23.82353-6.5098,6.5098-14.43136,9.76471-23.76471,9.7647-9.33333,0-17.2745-3.2549-23.8235-9.7647-6.549-6.54902-9.82354-14.4902-9.82354-23.82353h0v-70c0-9.33334,3.27454-17.27451,9.82354-23.82353,6.549-6.50981,14.49017-9.76471,23.8235-9.76471s17.25491,3.2549,23.76471,9.76471c6.54903,6.54902,9.82356,14.49019,9.82356,23.82353h0c0,1.56862-.54905,2.88235-1.6471,3.94118-1.09805,1.09804-2.41174,1.64706-3.94117,1.64706-1.56865,0-2.902-.54901-4-1.64706-1.09805-1.05883-1.64705-2.37256-1.64705-3.94118h0c0-6.23529-2.17644-11.52942-6.52942-15.88236-4.35293-4.35294-9.62744-6.52941-15.82354-6.52941-6.23526,0-11.52941,2.17647-15.88233,6.52941-4.35295,4.35294-6.52939,9.64707-6.52942,15.88236h0v70c.00002,6.23529,2.17646,11.52941,6.52942,15.88235,4.35293,4.35294,9.64708,6.52941,15.88233,6.52941,6.1961,0,11.47061-2.17647,15.82354-6.52941,4.35297-4.35294,6.52942-9.64706,6.52942-15.88235h0v-22.41176h-22.35296c-1.5686,0-2.90193-.54902-3.99998-1.64706-1.09803-1.05882-1.64705-2.37255-1.64705-3.94118s.54902-2.88235,1.64705-3.94117c1.09805-1.09804,2.43138-1.64706,3.99998-1.64706Zm106.41179,61.58824v-50.41176h-44.82354v50.41176c0,1.56863-.549,2.88235-1.64705,3.94117-1.098,1.09804-2.41179,1.64706-3.94117,1.64706-1.5686,0-2.90195-.54902-4-1.64706-1.05883-1.05882-1.58826-2.37255-1.58826-3.94117h0v-98c0-9.33334,3.25492-17.27451,9.76473-23.82353,6.54903-6.50981,14.49019-9.76471,23.82355-9.76471s17.25486,3.2549,23.76467,9.76471c6.54903,6.54902,9.82356,14.49019,9.82356,23.82353h0v98c0,1.56863-.54905,2.88235-1.64705,3.94117-1.05887,1.09804-2.37256,1.64706-3.94121,1.64706-1.5686,0-2.90191-.54902-4-1.64706-1.05878-1.05882-1.58822-2.37255-1.58822-3.94117h0Zm-44.82354-98v36.41176h44.82354v-36.41176c0-6.23529-2.17649-11.52942-6.52942-15.88236-4.39215-4.35294-9.68628-6.52941-15.88233-6.52941-6.23532,0-11.52945,2.17647-15.88238,6.52941-4.35297,4.35294-6.52942,9.64707-6.52942,15.88236h0Zm112-14h0v112c0,1.56863-.549,2.88235-1.64705,3.94117-1.05878,1.09804-2.37252,1.64706-3.94117,1.64706-1.56865,0-2.88234-.54902-3.94117-1.64706-1.09809-1.05882-1.6471-2.37255-1.6471-3.94117h0v-112c0-2.35294-.82353-4.33333-2.47058-5.94118-1.64705-1.64706-3.62746-2.47059-5.94119-2.47059-2.35295,0-4.33327,.82353-5.94114,2.47059-1.6471,1.60784-2.47062,3.58823-2.47062,5.94118h0v112c0,1.56863-.549,2.88235-1.64705,3.94117-1.05883,1.09804-2.37252,1.64706-3.94117,1.64706-1.5686,0-2.902-.54902-4-1.64706-1.05883-1.05882-1.58822-2.37255-1.58822-3.94117h0v-112c0-5.45098,1.90196-10.07843,5.70584-13.88235,3.80393-3.80393,8.43142-5.70589,13.88236-5.70589h0c5.45102,0,10.1177,1.94118,14.00003,5.82353h0c3.88233-3.88235,8.54901-5.82353,13.99998-5.82353h0c5.45098,0,10.07843,1.90196,13.88236,5.70589,3.80393,3.80392,5.70589,8.43137,5.70589,13.88235h0v112c0,1.56863-.54905,2.88235-1.64705,3.94117-1.05887,1.09804-2.37256,1.64706-3.94121,1.64706-1.5686,0-2.88234-.54902-3.94117-1.64706-1.098-1.05882-1.6471-2.37255-1.64705-3.94117h0v-112c-.00004-2.35294-.82353-4.33333-2.47058-5.94118-1.64705-1.64706-3.62746-2.47059-5.94119-2.47059-2.35295,0-4.33336,.82353-5.94119,2.47059-1.64701,1.60784-2.47058,3.58823-2.47058,5.94118Zm56.00002,0v36.41176h50.41176c1.5686,0,2.90195,.52941,4,1.58824,1.05883,1.09804,1.58822,2.43138,1.58822,4s-.52939,2.88235-1.58822,3.94118c-1.09805,1.09804-2.4314,1.64706-4,1.64706h-50.41176v50.41176c.00004,2.35294,.82353,4.33333,2.47058,5.94118,1.64705,1.64706,3.62746,2.47059,5.94119,2.47059h42c1.5686,0,2.90195,.54902,4,1.64706,1.05883,1.05882,1.58822,2.37255,1.58822,3.94118s-.52939,2.88235-1.58822,3.94117c-1.09805,1.09804-2.4314,1.64706-4,1.64706h-42c-5.45098,0-10.07847-1.90196-13.88236-5.70588-3.80393-3.80392-5.70589-8.43137-5.70589-13.88235h0v-98c0-5.45098,1.90196-10.07843,5.70589-13.88235,3.80388-3.80393,8.43138-5.70589,13.88236-5.70589h42c1.5686,0,2.90195,.52941,4,1.58824,1.05883,1.09804,1.58822,2.43138,1.58822,4s-.52939,2.88235-1.58822,3.94118c-1.09805,1.09804-2.4314,1.64706-4,1.64706h-42c-2.31373,0-4.29414,.82353-5.94119,2.47059-1.64705,1.60784-2.47053,3.58823-2.47058,5.94118h0Z"/>
  <g>
    <path class="cls-4" d="M559.90012,136.27368l102.37988,62.49143-318.85237,183.26283,34.1739-111.99396,182.29859-133.7603Z"/>
    <path class="cls-2" d="M526.22252,509.12364h94.58086l-243.20186-239.08964-34.1739,111.99395,182.79489,127.0957Z"/>
    <path class="cls-5" d="M559.90012,136.27368l102.37988,62.49143,20.33417,80.6986-78.79847,12.4359-43.91558-155.62593Z"/>
    <path class="cls-6" d="M648.87986,310.54636l-152.13764,41.44826,199.62658,44.78057-47.48896-86.22882h.00002Z"/>
    <path class="cls-3" d="M526.22252,509.12364h94.58086l75.56542-112.34847-47.48896-86.22882-122.65734,198.57728h.00002Z"/>
  </g>
</svg>