<?xml version="1.0" encoding="UTF-8"?>
<svg id="_图层_1" data-name="图层 1" xmlns="http://www.w3.org/2000/svg" xmlns:xlink="http://www.w3.org/1999/xlink" viewBox="0 0 1801 701">
  <defs>
    <style>
      .cls-1 {
        fill: #7e318e;
      }

      .cls-2 {
        fill: url(#_未命名的渐变_2);
      }

      .cls-2, .cls-3, .cls-4, .cls-5, .cls-6 {
        fill-rule: evenodd;
      }

      .cls-3 {
        fill: url(#_未命名的渐变_5);
      }

      .cls-4 {
        fill: url(#_未命名的渐变);
      }

      .cls-7 {
        fill: none;
        opacity: .1;
        stroke: #fff;
        stroke-miterlimit: 10;
      }

      .cls-5 {
        fill: url(#_未命名的渐变-2);
      }

      .cls-6 {
        fill: url(#_未命名的渐变_4);
      }
    </style>
    <linearGradient id="_未命名的渐变" data-name="未命名的渐变" x1="-616.23271" y1="1075.58584" x2="-325.77727" y2="1242.36795" gradientTransform="translate(859.57884 1888.09361) scale(1.418 -1.418)" gradientUnits="userSpaceOnUse">
      <stop offset="0" stop-color="#aa65a6"/>
      <stop offset=".61" stop-color="#7e318e"/>
      <stop offset="1" stop-color="#472b8a"/>
    </linearGradient>
    <linearGradient id="_未命名的渐变_2" data-name="未命名的渐变 2" x1="-425.01731" y1="852.27941" x2="-425.01731" y2="1168.07082" gradientTransform="translate(859.57884 1888.09361) scale(1.418 -1.418)" gradientUnits="userSpaceOnUse">
      <stop offset="0" stop-color="#fed72b"/>
      <stop offset=".67" stop-color="#ed6f17"/>
      <stop offset=".72" stop-color="#ea6718"/>
      <stop offset=".81" stop-color="#e0511b"/>
      <stop offset=".91" stop-color="#d12e1f"/>
      <stop offset=".99" stop-color="#c30d23"/>
    </linearGradient>
    <linearGradient id="_未命名的渐变-2" data-name="未命名的渐变" x1="-328.32449" y1="1189.99789" x2="-251.65459" y2="1234.02243" xlink:href="#_未命名的渐变"/>
    <linearGradient id="_未命名的渐变_4" data-name="未命名的渐变 4" x1="-408.86524" y1="1061.70828" x2="-188.42038" y2="1061.70828" gradientTransform="translate(859.57884 1888.09361) scale(1.418 -1.418)" gradientUnits="userSpaceOnUse">
      <stop offset="0" stop-color="#fed72b"/>
      <stop offset=".67" stop-color="#ed6f17"/>
      <stop offset=".72" stop-color="#ea6718"/>
      <stop offset=".81" stop-color="#e0511b"/>
      <stop offset=".91" stop-color="#d12e1f"/>
      <stop offset=".99" stop-color="#c30d23"/>
    </linearGradient>
    <linearGradient id="_未命名的渐变_5" data-name="未命名的渐变 5" x1="-222.00491" y1="1102.94434" x2="-306.75045" y2="891.1118" gradientTransform="translate(859.57884 1888.09361) scale(1.418 -1.418)" gradientUnits="userSpaceOnUse">
      <stop offset="0" stop-color="#aa65a6"/>
      <stop offset=".61" stop-color="#7e318e"/>
      <stop offset="1" stop-color="#472b8a"/>
    </linearGradient>
  </defs>
  <rect class="cls-7" x=".5" y=".5" width="1800" height="700"/>
  <path class="cls-1" d="M846.60533,601.40759h-31.96241v-79.03099h32.33086c21.30828,1.16673,32.39227,13.97012,33.25197,38.41017h0c-1.10533,26.52788-12.31213,40.06816-33.62041,40.62082h0Zm-1.28955-70.37258h-19.89591v61.34573h20.72491c14.98335-.92111,22.75134-11.14539,23.30401-30.67286h0c-.30704-19.89591-8.35137-30.1202-24.133-30.67286h0Zm86.30774,36.29162h-25.88311v34.08096h-10.77695v-79.03099h36.66007c17.56243,0,26.34366,7.06182,26.34366,21.18546h0c0,8.597-3.74585,14.92194-11.23751,18.97481h0c6.32493,1.7194,9.4874,6.75478,9.4874,15.10615h0l.92111,14.27716c-.30703,3.99146,.98253,6.57056,3.86865,7.7373h0v1.7501h-13.35605c-.92111-3.74584-1.50448-10.37781-1.75011-19.89591h0c.24563-9.4567-4.51342-14.18505-14.27715-14.18505h0Zm.82899-36.29162h-26.7121v27.17266h25.05411c10.62344,0,15.93515-4.60554,15.93515-13.81661h0c0-8.90403-4.75905-13.35605-14.27716-13.35605h0Zm92.84759,70.37258l-7.7373-22.84346h-31.96241l-8.19785,22.84346h-10.77695l29.75175-79.03099h12.0665l28.55432,79.03099h-11.69806Zm-23.76456-67.33293l-12.43495,34.90996h24.59356l-11.69805-34.90996h-.46056Zm104.08509,34.08096h-24.133v-9.02685h34.54152v42.27882h-6.9083l-2.57909-9.94796c-6.07931,7.18464-14.73773,10.93047-25.97523,11.23751h0c-10.62342,0-18.82127-2.73262-24.59356-8.19785h0c-8.65841-8.04434-12.83409-19.12832-12.52704-33.25197h0c2.02643-26.22085,14.55349-39.88393,37.58117-40.98927h0c19.58886,1.10534,30.82636,9.73303,33.71252,25.88311h-10.40852c-2.88615-10.93047-10.80765-16.54922-23.76456-16.85626h0c-16.39571,1.16673-25.02341,11.97439-25.8831,32.42297h0c0,21.86094,8.78122,32.79141,26.34367,32.79141h0c6.32493,0,11.79016-1.7194,16.39569-5.1582h0c5.77227-4.60554,8.50491-11.66736,8.19785-21.18546h0Zm89.34739-6.07931h0c-1.10532-20.6942-10.31639-31.62468-27.63321-32.79141h0c-17.50101,.8597-26.71208,11.79017-27.63321,32.79141h0c.92113,20.44858,10.1322,31.10271,27.63321,31.96242h0c17.31682-1.10533,26.52789-11.75947,27.63321-31.96242Zm10.86907,0h0c-1.71942,26.22085-14.55347,39.76112-38.50228,40.62082h0c-24.133-.8597-37.05922-14.39997-38.7786-40.62082h0c1.41238-27.32618,14.33854-41.2656,38.7786-41.81827h0c23.9488,.8597,36.78286,14.79912,38.50228,41.81827Zm25.42254-39.69971l39.69973,63.92483v-63.92483h10.40852v79.03099h-12.06652l-40.16027-63.92483h-.46055v63.92483h-10.31639v-79.03099h12.89548Zm156.31188,45.77902h-24.133v-9.02685h34.54148v42.27882h-6.90827l-2.67122-9.94796c-6.01792,7.18464-14.6456,10.93047-25.88312,11.23751h0c-10.62346,0-18.82127-2.73262-24.59354-8.19785h0c-8.65843-8.04434-12.83406-19.12832-12.52706-33.25197h0c2.02645-26.22085,14.55351-39.88393,37.58119-40.98927h0c19.58888,1.10534,30.82636,9.73303,33.71248,25.88311h-10.40848c-2.88615-10.93047-10.80768-16.54922-23.76458-16.85626h0c-16.39569,1.16673-25.02338,11.97439-25.88309,32.42297h0c0,21.86094,8.78123,32.79141,26.34367,32.79141h0c6.32492,0,11.79016-1.7194,16.39569-5.1582h0c5.77227-4.60554,8.50484-11.66736,8.19785-21.18546h0Zm79.031,33.25196l-7.73734-22.84346h-31.96236l-8.19792,22.84346h-10.86907l29.84392-79.03099h12.06648l28.46225,79.03099h-11.60597Zm-23.76458-67.33293l-12.52706,34.90996h24.59354l-11.6059-34.90996h-.46058Zm120.94133-11.69806v79.03099h-10.40848v-66.50393h0l-22.47504,66.50393h-10.77694l-22.01445-66.50393h-.46058c0,3.19317,.15355,7.95222,.46058,14.27716h0v5.61875h0v46.60802h-10.77694v-79.03099h15.56673l22.84342,66.96448,22.47504-66.96448h15.56666Zm27.63321,69.54358h47.43703v9.4874h-58.30609v-79.03099h57.47713v9.11896h-46.60807v24.59356h43.10781v9.4874h-43.10781v26.34366Z"/>
  <path class="cls-1" d="M941.6866,289.58981h-78.93887v48.26601h57.01652c2.45628,0,4.54415,.829,6.26353,2.48699,1.65798,1.7194,2.48699,3.80725,2.48699,6.26353s-.82902,4.51343-2.48699,6.17142c-1.71938,1.7194-3.80725,2.5791-6.26353,2.5791h-57.01652v35.09418c0,15.84304,5.55734,29.29121,16.67203,40.34449,11.05329,11.11469,24.50145,16.67204,40.34448,16.67204h21.92236c2.45627,0,4.54413,.8597,6.26353,2.5791,1.65798,1.65799,2.48698,3.71513,2.48698,6.17142s-.829,4.51342-2.48698,6.17141c-1.7194,1.7194-3.80727,2.57911-6.26353,2.5791h-21.92236c-20.44857,0-37.98031-7.30745-52.59521-21.92235-14.61489-14.6149-21.92235-32.14664-21.92235-52.59521h0v-100.86122h-26.34366v100.86122c0,20.44858-7.30745,37.98032-21.92235,52.59521-14.61489,14.6149-32.14664,21.92235-52.59521,21.92235h-21.92235c-2.45629,0-4.51343-.8597-6.17142-2.5791-1.7194-1.65799-2.5791-3.71513-2.5791-6.17141s.8597-4.51343,2.5791-6.17142c1.65799-1.7194,3.71513-2.5791,6.17142-2.5791h21.92235c15.84304,0,29.2912-5.55735,40.34449-16.67204,11.11469-11.05328,16.67203-24.50145,16.67203-40.34449h0v-100.86122h-78.93887c-2.45629,0-4.51343-.8597-6.17142-2.5791-1.7194-1.658-2.5791-3.71513-2.5791-6.17142s.8597-4.54413,2.5791-6.26353c1.65799-1.65799,3.71513-2.48698,6.17142-2.48698h78.93887v-100.86123c0-2.45627,.85969-4.54413,2.5791-6.26353,1.658-1.65798,3.71514-2.48698,6.17142-2.48698s4.54413,.829,6.26353,2.48698c1.65799,1.7194,2.487,3.80727,2.48699,6.26353h0v100.86123h122.78357c2.45627,0,4.54413,.829,6.26353,2.48698,1.65798,1.7194,2.48698,3.80725,2.48698,6.26353s-.829,4.51342-2.48698,6.17142c-1.7194,1.7194-3.80727,2.57911-6.26353,2.5791h0Zm-35.09417-96.4399h0v43.84468c0,2.39488-.829,4.45204-2.48699,6.17142-1.71942,1.7194-3.80725,2.57911-6.26353,2.57911-2.39486,0-4.45202-.85971-6.17142-2.57911-1.7194-1.71938-2.57911-3.77654-2.57911-6.17142h0v-43.84468c0-2.45628,.85971-4.54415,2.57911-6.26353,1.7194-1.65798,3.77656-2.48699,6.17142-2.48699,2.45628,0,4.54412,.82902,6.26353,2.48699,1.658,1.71938,2.48699,3.80725,2.48699,6.26353Zm276.3321,184.1293h-13.17183v57.01653c0,8.53559-2.97821,15.78163-8.93471,21.73812-6.01789,5.9565-13.29464,8.93475-21.83026,8.93474h0c-2.3949,0-4.45198-.8597-6.1714-2.5791-1.71938-1.65799-2.57905-3.71513-2.57909-6.17141,.00004-2.45629,.85971-4.51343,2.57909-6.17142,1.71942-1.7194,3.7765-2.5791,6.1714-2.5791h0c3.68444,0,6.81621-1.28955,9.3953-3.86865,2.51767-2.51769,3.77654-5.61875,3.77654-9.30318h0v-57.01653h-13.17183c-8.47413,0-15.72018-2.97825-21.7381-8.93474-5.9565-5.95649-8.93475-13.20253-8.93475-21.73812h0v-21.92235c0-2.45628,.85967-4.54412,2.57909-6.26352,1.71942-1.658,3.77657-2.48699,6.17144-2.48699,2.45625,0,4.54412,.829,6.26353,2.48699,1.71942,1.7194,2.57912,3.80724,2.57909,6.26352h0v21.92235c.00004,3.62302,1.25883,6.72408,3.77654,9.30318,2.57909,2.5791,5.68014,3.86865,9.30317,3.86865h13.17183v-78.93887c0-2.45628,.85971-4.54413,2.57912-6.26353,1.71942-1.65799,3.80721-2.48698,6.26353-2.48698h0c9.70233,0,17.96159-3.4081,24.77777-10.22429,6.81621-6.87759,10.22426-15.16755,10.22429-24.8699h0v-21.92234c-.00004-9.76375-3.40809-18.05369-10.22429-24.8699-6.81617-6.81619-15.07544-10.22429-24.77777-10.22428-9.76371-.00002-18.05373,3.40809-24.8699,10.22428-6.81621,6.81621-10.22426,15.10615-10.22429,24.8699h0v21.92234c.00004,2.39488-.85967,4.45204-2.57909,6.17142-1.71942,1.7194-3.80728,2.57911-6.26353,2.57911-2.39486,0-4.45202-.85971-6.17144-2.57911-1.71942-1.71938-2.57909-3.77654-2.57909-6.17142h0v-21.92234c0-14.61489,5.12747-27.04984,15.38247-37.30483,10.19358-10.19358,22.62855-15.29038,37.30486-15.29038,14.61486,0,27.01908,5.09679,37.2127,15.29038,10.25497,10.25499,15.38251,22.68994,15.38251,37.30483h0v21.92234c0,12.8955-4.20637,24.22511-12.61916,33.98886-8.41278,9.70234-18.8213,15.65882-31.22556,17.86948h0v70.92524h13.17183c3.62302,0,6.72411-1.28955,9.3032-3.86865,2.5177-2.5791,3.7765-5.68016,3.77654-9.30318h0v-21.92235c-.00004-2.45628,.85967-4.54412,2.57909-6.26352,1.71938-1.658,3.80725-2.48699,6.26353-2.48699,2.39486,0,4.45202,.829,6.1714,2.48699,1.71945,1.7194,2.57912,3.80724,2.57912,6.26352h0v21.92235c0,8.53559-2.97825,15.78163-8.93475,21.73812-6.01792,5.9565-13.26396,8.93474-21.73813,8.93474h0Zm-144.70591-206.05166v35.09417h13.07974c8.53559,0,15.78163,2.97825,21.7381,8.93475,6.01792,5.95648,9.02685,13.20253,9.02685,21.73811s-3.00892,15.78165-9.02685,21.73813c-5.95646,5.9565-13.20251,8.93474-21.7381,8.93474h0c-3.62302,0-6.72408,1.28955-9.3032,3.86865-2.5177,2.51769-3.77654,5.61875-3.77654,9.30318h0v175.37879c0,2.45628-.85971,4.51342-2.57909,6.17141-1.71942,1.7194-3.80728,2.57911-6.26353,2.5791-2.39486,0-4.45202-.8597-6.17144-2.5791-1.71938-1.65799-2.57909-3.71513-2.57909-6.17141h0v-175.37879c0-8.53559,2.97825-15.78163,8.93475-21.73812,6.01789-5.9565,13.26393-8.93475,21.73813-8.93475h0c3.68441,0,6.81617-1.28954,9.39526-3.86865,2.5177-2.57909,3.77654-5.68016,3.77654-9.30318,0-3.68442-1.25883-6.78548-3.77654-9.30317-2.57909-2.57911-5.71085-3.86865-9.39526-3.86865h-13.81661c-2.21067,12.40422-8.19785,22.81274-17.96159,31.22552-9.70236,8.41278-21.03194,12.61917-33.98886,12.61917h0c-2.39488,0-4.45204-.8597-6.17142-2.5791-1.7194-1.658-2.57911-3.71513-2.57911-6.17142s.85971-4.54413,2.57911-6.26353c1.71938-1.658,3.77654-2.48699,6.17142-2.48699h0c9.76373,0,18.05367-3.4081,24.86988-10.22428,6.81621-6.87761,10.22429-15.16757,10.22429-24.8699h0v-43.8447c0-2.45627,.85971-4.54413,2.57909-6.26353,1.71942-1.65798,3.77657-2.48698,6.17144-2.48698,2.45625,0,4.54412,.829,6.26353,2.48698,1.71938,1.7194,2.57909,3.80727,2.57909,6.26353h0Zm254.31763,188.55062h43.84472c2.3949,0,4.45198,.8597,6.1714,2.5791,1.71942,1.65799,2.57916,3.71513,2.57916,6.17141h0v43.8447c0,14.6149-5.12754,27.04984-15.38254,37.30484-10.19358,10.19358-22.59781,15.29038-37.21273,15.29038-14.61489,0-27.04983-5.09679-37.30479-15.29038-10.25497-10.25499-15.38251-22.68994-15.38251-37.30484h0v-109.61174c0-14.6149,5.12754-27.04984,15.38251-37.30484,10.25497-10.19359,22.6899-15.29038,37.30479-15.29038s27.01915,5.09679,37.21273,15.29038c10.255,10.255,15.38254,22.68994,15.38254,37.30484h0c0,2.45627-.85974,4.51342-2.57916,6.17142-1.71942,1.71941-3.7765,2.5791-6.1714,2.5791-2.45632,0-4.54419-.85969-6.26353-2.5791-1.71942-1.658-2.57909-3.71514-2.57909-6.17142h0c0-9.76373-3.40805-18.05371-10.22429-24.8699-6.81617-6.81619-15.07544-10.22429-24.7778-10.22429-9.76368,0-18.05369,3.4081-24.86986,10.22429-6.81621,6.81619-10.22426,15.10617-10.22429,24.8699h0v109.61174c.00004,9.76374,3.40809,18.0537,10.22429,24.86989,6.81617,6.81619,15.10619,10.22429,24.86986,10.22429,9.70236,0,17.96163-3.4081,24.7778-10.22429,6.81624-6.81619,10.22429-15.10616,10.22429-24.86989h0v-35.09418h-35.0021c-2.45625,0-4.54408-.8597-6.2635-2.5791-1.71938-1.65799-2.57909-3.71513-2.57909-6.17142s.85971-4.51342,2.57909-6.17141c1.71942-1.7194,3.80725-2.57911,6.2635-2.5791Zm166.62831,96.43991v-78.93888h-70.18838v78.93888c0,2.45628-.85967,4.51342-2.57909,6.17141-1.71935,1.7194-3.77657,2.57911-6.1714,2.5791-2.45625,0-4.54412-.8597-6.26353-2.5791-1.658-1.65799-2.48703-3.71513-2.48703-6.17141h0v-153.45644c0-14.6149,5.09683-27.04984,15.29041-37.30484,10.255-10.19359,22.68994-15.29038,37.30486-15.29038s27.01908,5.09679,37.21266,15.29038c10.255,10.255,15.38254,22.68994,15.38254,37.30484h0v153.45644c0,2.45628-.85974,4.51342-2.57909,6.17141-1.65807,1.7194-3.71515,2.57911-6.17147,2.5791-2.45625,0-4.54404-.8597-6.26353-2.5791-1.65793-1.65799-2.48696-3.71513-2.48696-6.17141h0Zm-70.18838-153.45644v57.01652h70.18838v-57.01652c0-9.76373-3.40812-18.05371-10.22429-24.8699-6.87759-6.81619-15.16757-10.22429-24.86986-10.22429-9.76378,0-18.05376,3.4081-24.86993,10.22429-6.81624,6.81619-10.22429,15.10617-10.22429,24.8699h0Zm175.3788-21.92235h0v175.37879c0,2.45628-.85967,4.51342-2.57909,6.17141-1.65793,1.7194-3.71508,2.57911-6.1714,2.5791-2.45632,0-4.5134-.8597-6.1714-2.5791-1.71949-1.65799-2.57916-3.71513-2.57916-6.17141h0v-175.37879c0-3.68443-1.28954-6.78549-3.86863-9.30318-2.57909-2.5791-5.68018-3.86865-9.3032-3.86865-3.68444,0-6.78539,1.28955-9.30313,3.86865-2.57916,2.51769-3.8687,5.61875-3.8687,9.30318h0v175.37879c0,2.45628-.85967,4.51342-2.57909,6.17141-1.658,1.7194-3.71508,2.57911-6.1714,2.5791-2.45625,0-4.54419-.8597-6.26353-2.5791-1.658-1.65799-2.48696-3.71513-2.48696-6.17141h0v-175.37879c0-8.53559,2.97825-15.78163,8.93468-21.73812,5.9565-5.9565,13.20261-8.93475,21.73813-8.93475h0c8.53566,0,15.84312,3.03965,21.92239,9.11896h0c6.07927-6.07931,13.38673-9.11896,21.92232-9.11896h0c8.53559,0,15.78163,2.97825,21.73813,8.93475,5.9565,5.95649,8.93475,13.20254,8.93475,21.73812h0v175.37879c0,2.45628-.85974,4.51342-2.57909,6.17141-1.65807,1.7194-3.71515,2.57911-6.17147,2.5791-2.45625,0-4.5134-.8597-6.1714-2.5791-1.71935-1.65799-2.57916-3.71513-2.57909-6.17141h0v-175.37879c-.00007-3.68443-1.28954-6.78549-3.86863-9.30318-2.57909-2.5791-5.68018-3.86865-9.3032-3.86865-3.68444,0-6.78553,1.28955-9.3032,3.86865-2.57902,2.51769-3.86863,5.61875-3.86863,9.30318Zm87.68943,0v57.01652h78.93887c2.45625,0,4.54412,.829,6.26353,2.48699,1.658,1.7194,2.48696,3.80725,2.48696,6.26353s-.82896,4.51343-2.48696,6.17142c-1.71942,1.7194-3.80728,2.5791-6.26353,2.5791h-78.93887v78.93888c.00007,3.68443,1.28954,6.78549,3.86863,9.30318,2.57909,2.5791,5.68018,3.86865,9.3032,3.86865h65.76704c2.45625,0,4.54412,.8597,6.26353,2.5791,1.658,1.65799,2.48696,3.71513,2.48696,6.17142s-.82896,4.51342-2.48696,6.17141c-1.71942,1.7194-3.80728,2.57911-6.26353,2.5791h-65.76704c-8.53559,0-15.7817-2.97825-21.73813-8.93474-5.9565-5.95649-8.93475-13.20253-8.93475-21.73812h0v-153.45644c0-8.53559,2.97825-15.78163,8.93475-21.73812,5.95643-5.9565,13.20254-8.93475,21.73813-8.93475h65.76704c2.45625,0,4.54412,.829,6.26353,2.48699,1.658,1.7194,2.48696,3.80725,2.48696,6.26353s-.82896,4.51342-2.48696,6.17142c-1.71942,1.7194-3.80728,2.5791-6.26353,2.5791h-65.76704c-3.62302,0-6.72411,1.28955-9.3032,3.86865-2.57909,2.51769-3.86856,5.61875-3.86863,9.30318h0Z"/>
  <g>
    <path class="cls-4" d="M378.70414,42.18453l160.31482,97.85421L39.73376,427.00672l53.51229-175.36933L378.70414,42.18453Z"/>
    <path class="cls-2" d="M325.969,626.02359h148.10247L93.24605,251.63741l-53.51229,175.36931,286.23524,199.01688Z"/>
    <path class="cls-5" d="M378.70414,42.18453l160.31482,97.85421,31.84091,126.36449-123.38911,19.47315L378.70414,42.18453Z"/>
    <path class="cls-6" d="M518.03593,315.075l-238.22961,64.90309,312.59168,70.12109-74.36211-135.02416,.00003-.00002Z"/>
    <path class="cls-3" d="M325.969,626.02359h148.10247l118.32654-175.92445-74.36211-135.02416-192.06693,310.9486h.00003Z"/>
  </g>
</svg>