<?xml version="1.0" encoding="utf-8"?>
<!-- Generator: Adobe Illustrator 26.5.0, SVG Export Plug-In . SVG Version: 6.00 Build 0)  -->
<svg version="1.1" id="图层_1" xmlns="http://www.w3.org/2000/svg" xmlns:xlink="http://www.w3.org/1999/xlink" x="0px" y="0px"
	 viewBox="0 0 612 792" style="enable-background:new 0 0 612 792;" xml:space="preserve">
<style type="text/css">
	.st0{fill:none;}
	.st1{clip-path:url(#SVGID_00000119799415599666785900000007342106572326922409_);fill:#3F44EC;}
	.st2{fill:#3F44EC;}
	.st3{fill:#FDD55B;}
	.st4{fill:#15C0FF;}
</style>
<circle class="st0" cx="295.49" cy="411.7" r="350"/>
<g>
	<g>
		<g>
			<defs>
				
					<rect id="SVGID_1_" x="-7.99" y="111.63" transform="matrix(1.001279e-03 -1 1 1.001279e-03 -120.3987 710.6613)" width="606.96" height="607.92"/>
			</defs>
			<clipPath id="SVGID_00000111159886154266241770000005884358211789704842_">
				<use xlink:href="#SVGID_1_"  style="overflow:visible;"/>
			</clipPath>
			<path style="clip-path:url(#SVGID_00000111159886154266241770000005884358211789704842_);fill:#3F44EC;" d="M161.87,715.31
				l62.65-62.53c11.31,11.3,29.63,11.32,40.96,0.04l307.92-306.56c33.86-33.94,33.92-88.87,0.12-122.88l-85.6-85.77
				c-33.98-33.77-88.83-33.83-122.88-0.12L57.69,444.29c-11.25,11.32-11.27,29.61-0.04,40.96l-62.4,63.42
				c-1.85,1.85-2.9,4.35-2.9,6.96s1.03,5.12,2.88,6.97l152.79,152.69C151.87,719.05,158.01,719.06,161.87,715.31L161.87,715.31z
				 M71.51,471.59c-3.62-3.75-3.61-9.69,0.01-13.43l307.42-306.73c12.65-12.66,29.81-19.76,47.7-19.74
				c17.89,0.02,35.04,7.15,47.66,19.83l85.36,85.45c12.63,12.66,19.72,29.81,19.7,47.7c-0.02,17.89-7.14,35.03-19.8,47.66
				L252.14,639.05c-1.77,1.78-4.17,2.77-6.68,2.77c-2.51,0-4.91-1-6.68-2.78L71.51,471.59z M131.77,671.12l34.85-34.86l-13.83-13.69
				l-34.93,34.86l-25.37-25.42L127,596.9l-13.83-13.94l-34.93,34.86L53.28,592.4l34.85-34.86L74.3,543.6l-34.93,34.86l-23.24-23.29
				l55.6-55.57l139.12,139.4l-55.68,55.57L131.77,671.12z M131.77,671.12"/>
		</g>
		<path class="st2" d="M383.54,453.86c7.75,0.19,15.26-2.76,20.82-8.17l97.42-97.63c5.55-5.51,8.68-13.01,8.69-20.84
			c0.01-7.82-3.11-15.33-8.65-20.86l-97.22-97.42c-5.51-5.55-13.02-8.68-20.84-8.69c-7.82-0.01-15.33,3.11-20.86,8.65l-97.42,97.22
			c-11.48,11.52-11.5,30.15-0.04,41.7l97.22,97.42C368.17,450.82,375.7,453.92,383.54,453.86L383.54,453.86z M376.6,431.32
			l-97.22-97.42c-1.84-1.83-2.88-4.32-2.88-6.92c0-2.6,1.04-5.09,2.89-6.92l97.42-97.22c1.85-1.85,4.35-2.89,6.97-2.88
			c2.61,0,5.12,1.04,6.96,2.9l97.23,97.34c1.84,1.83,2.88,4.33,2.88,6.92c0,2.6-1.04,5.09-2.89,6.92l-97.42,97.3
			c-1.85,1.85-4.35,2.89-6.96,2.88C380.95,434.22,378.45,433.17,376.6,431.32L376.6,431.32z M376.6,431.32"/>
		<path class="st3" d="M247.69,514l-19.16,18.81l10.66,10.68l21.36-21.26c1.39-1.43,2.18-3.34,2.2-5.33l0.05-53.35l7.35-7.33
			c13.22,7.94,30.28,4.79,39.79-7.35c9.51-12.13,8.51-29.45-2.35-40.39c-10.86-10.94-28.16-12.09-40.37-2.67
			c-12.21,9.42-15.49,26.45-7.66,39.73l-30.03,29.91l-52.1-0.05c-2.01,0.01-3.93,0.82-5.34,2.25l-21.49,21.44l10.6,10.68
			l18.85-19.12l34.4,0.03l-47.94,47.84l10.85,10.81l70.37-70.73L247.69,514z M274.76,440.96c-5.69-5.96-5.68-15.34,0.02-21.28
			c4.31-4.31,10.79-5.6,16.43-3.26c5.63,2.33,9.3,7.83,9.29,13.93s-3.69,11.59-9.32,13.91
			C285.54,446.59,279.06,445.28,274.76,440.96L274.76,440.96z M274.76,440.96"/>
		<g>
			
				<rect x="356.83" y="252.72" transform="matrix(0.7209 -0.6931 0.6931 0.7209 -87.9741 343.2518)" class="st4" width="50.67" height="56.25"/>
			
				<rect x="312.19" y="295.64" transform="matrix(0.7209 -0.6931 0.6931 0.7209 -130.1774 324.2927)" class="st4" width="50.67" height="56.25"/>
			
				<rect x="404.48" y="302.28" transform="matrix(0.7209 -0.6931 0.6931 0.7209 -109.0232 390.1074)" class="st4" width="50.67" height="56.25"/>
			
				<rect x="359.84" y="345.2" transform="matrix(0.7209 -0.6931 0.6931 0.7209 -151.2265 371.1482)" class="st4" width="50.67" height="56.25"/>
		</g>
	</g>
	<g>
		<path class="st2" d="M465.17,190.86c0.22,0.02,0.25,0.09,0.1,0.2c-0.04,0-0.19,0.12-0.43,0.36c-0.49,0.49-1.15,1.21-2,2.17
			c-0.85,0.96-1.52,1.75-2,2.37c-0.42,0.51-0.65,0.76-0.7,0.76c-0.11-0.02-0.3-0.25-0.56-0.7c-0.27-0.44-0.48-0.89-0.63-1.36
			c-0.22-0.57-0.44-1.22-0.65-1.94c-0.21-0.72-0.29-1.1-0.25-1.14c0.02-0.02,0.32-0.05,0.89-0.1c0.42-0.02,0.99-0.09,1.72-0.2
			c0.95-0.15,2.12-0.31,3.51-0.46C464.62,190.83,464.95,190.84,465.17,190.86z M471.93,185.46c0.02-0.02,0.75,0.68,2.19,2.12
			l2.12,2.12c-0.02,0.02-0.13,0.09-0.31,0.22c-0.19,0.12-0.48,0.34-0.88,0.65c-1.04,0.68-2.1,1.49-3.18,2.42
			c-1.08,0.93-2.55,2.32-4.4,4.17l-2.85,2.91c-2.16,2.16-3.84,3.87-5.02,5.12c-1.18,1.25-2.27,2.48-3.26,3.69
			c-0.31,0.4-0.92,1.05-1.82,1.95c-1.24,1.24-1.89,1.82-1.95,1.75l-2.35-2.42l-2.48-2.48c-0.09-0.09-0.11-0.15-0.07-0.2
			c0.18-0.09,0.36-0.12,0.56-0.1c0.86-0.2,1.98-0.65,3.36-1.34c1.38-0.7,2.47-1.35,3.26-1.97c0.44-0.44,0.89-0.83,1.36-1.16
			c1.5-1.19,3.94-3.48,7.32-6.85c1.92-1.92,3.52-3.59,4.8-5c1.19-1.28,1.98-2.17,2.35-2.68c0.38-0.51,0.66-1.1,0.86-1.79
			L471.93,185.46z M471.36,194.77c0.07,0.07,0.08,0.52,0.03,1.36c0,1.15-0.01,1.89-0.03,2.22c0.02,0.46,0.12,1.18,0.3,2.15
			c0.18,0.97,0.3,1.49,0.36,1.56c0.09,0.09,0.09,0.18,0,0.26c-0.07,0.07-0.36,0.01-0.89-0.17c-0.53-0.22-1.38-0.52-2.55-0.89
			c-0.4-0.13-0.64-0.24-0.73-0.33c-0.13-0.13-0.17-0.38-0.1-0.73c0.07-0.35,0.25-0.77,0.56-1.26c1.72-2.52,2.69-3.88,2.91-4.11
			L471.36,194.77z M476.23,194c0.02,0.02,0.25,0.34,0.7,0.96c1.37,2.12,3.77,4.9,7.22,8.34c1.74,1.74,3.13,3.09,4.17,4.04
			c2.32,2.14,4.23,3.74,5.73,4.8c0.57,0.4,0.84,0.62,0.79,0.66c-0.75,0.4-1.53,0.81-2.35,1.22l-2.38,1.19l-0.2-0.26
			c-1.02-1.5-1.88-2.7-2.58-3.61c-0.71-0.91-1.58-1.96-2.62-3.18c-0.29-0.33-0.81-0.87-1.56-1.62c-1.3-1.3-2.79-2.65-4.45-4.06
			c-1.67-1.4-3.13-2.53-4.39-3.39c-0.31-0.18-0.56-0.33-0.76-0.46c-0.2-0.13-0.31-0.23-0.33-0.3c0.29-0.46,0.76-1.19,1.41-2.17
			c0.65-0.98,1.15-1.72,1.51-2.2C476.15,193.95,476.19,193.96,476.23,194z M470.04,212.78c0.04,0.04-0.08,0.14-0.38,0.28
			c-0.3,0.14-0.68,0.29-1.14,0.45c-0.49,0.22-1.6,0.6-3.34,1.13c-1.74,0.53-3.01,0.9-3.81,1.13l-0.36,0.03l-0.07-0.66
			c-0.15-0.64,0.02-2.56,0.53-5.76l0.13-0.66l1.19,0.79c1.39,0.91,2.59,1.59,3.59,2.07c1,0.47,2,0.83,3,1.08L470.04,212.78z
			 M475.24,201.88c1.79,1.92,3.66,3.86,5.63,5.83l5.33,5.46l-1.13,1.06l-2.68,2.42c-0.99,0.99-1.69,1.64-2.09,1.95l-0.6,0.53
			l-4.3-4.44l-1.92,2.05c-1.21,1.21-2.46,2.5-3.74,3.87c-0.95,1.08-1.99,2.19-3.11,3.31l-1.32,1.39l-0.36-0.43
			c-0.9-1.26-1.61-2.41-2.12-3.44l-0.6-1.13h0.53c0.93-0.09,1.82-0.3,2.68-0.63c0.44-0.18,1.05-0.57,1.82-1.19
			c0.77-0.62,1.93-1.66,3.48-3.11c1.72-1.72,2.57-2.62,2.55-2.68c-0.38-0.38-1.08-0.99-2.12-1.85l-2.19-1.92
			c-0.04-0.04,0.44-0.57,1.46-1.59c1.52-1.52,3-3.2,4.44-5.03L475.24,201.88z M477.82,208.51c-0.62-0.62-1.05-1.03-1.29-1.22
			l-0.43-0.36l-0.73,0.73c-0.57,0.57-0.96,0.94-1.16,1.09l-0.46,0.33l2.78,2.78c0.88,0.88,1.59,1.57,2.12,2.05
			c0.53,0.49,0.81,0.74,0.83,0.76c0.11,0.02,0.5-0.3,1.16-0.96c0.4-0.4,0.66-0.67,0.79-0.83c0.13-0.15,0.17-0.26,0.1-0.33
			c-0.26-0.26-0.72-0.78-1.36-1.56C479.29,210.02,478.5,209.19,477.82,208.51z M490.14,198.04c-0.02,0.07-0.07,0.22-0.13,0.46
			c-0.07,0.24-0.19,0.59-0.36,1.03l-1.69,5.53c0,0.13-0.03,0.17-0.1,0.1c-0.09-0.09-0.19-0.24-0.3-0.46
			c-0.11-0.22-0.25-0.46-0.43-0.73c-0.11-0.29-0.23-0.53-0.36-0.73c-0.13-0.2-0.23-0.33-0.3-0.4c-0.04-0.04-0.31-0.55-0.79-1.52
			c-0.38-0.82-0.67-1.38-0.89-1.69c-0.04-0.04-0.08-0.1-0.12-0.18c-0.03-0.08-0.04-0.13-0.02-0.15c0.09-0.09,0.9-0.34,2.43-0.75
			c1.53-0.41,2.46-0.61,2.76-0.61C489.97,197.94,490.07,197.98,490.14,198.04z M475.4,219.2c0.07,0.24,0.17,0.5,0.3,0.76
			c0.51,1.35,1.17,2.56,1.99,3.64c0.15,0.24,0.33,0.49,0.51,0.74c0.19,0.25,0.29,0.41,0.31,0.48c0.31,0.31,0.6,0.66,0.86,1.06
			c0.29,0.33,0.47,0.56,0.56,0.7c0.09,0.13,0.08,0.23-0.03,0.3l-2.81,0.63c-2.19,0.55-3.42,0.68-3.71,0.4
			c-0.09-0.09,0.11-1.3,0.6-3.64c0.49-2.34,0.86-3.84,1.13-4.5C475.26,219.34,475.36,219.16,475.4,219.2z"/>
		<path class="st2" d="M504.97,243.01c0.73-0.11,1.14-0.12,1.22-0.03c0.09,0.09-0.01,0.21-0.3,0.36l-1.82,1.36
			c-1.26,0.95-2.56,1.75-3.91,2.42c-1.35,0.66-2.18,1.1-2.5,1.31c-0.32,0.21-0.77,0.42-1.36,0.63c-0.59,0.21-0.99,0.31-1.21,0.31
			c-0.22,0-0.44-0.11-0.65-0.31c-0.21-0.21-0.33-0.38-0.35-0.51c-0.02-0.13,0.02-0.52,0.13-1.16l0.13-2.52
			c0.11-0.95,0.22-1.97,0.33-3.05l0.23-1.95c0.02-0.33,0.07-0.49,0.13-0.46c0.07,0.02,0.42,0.62,1.06,1.79
			c0.11,0.33,0.23,0.56,0.36,0.7c0.13,0.13,0.4,0.34,0.79,0.63c0.4,0.29,0.79,0.5,1.19,0.63c0.4,0.13,0.94,0.23,1.62,0.3
			C501.65,243.48,503.27,243.34,504.97,243.01z M510.27,235.46c0.33,0.11,0.57,0.24,0.73,0.4l0.23,0.23l-2.45,2.19l-1.52,1.32
			c-0.46,0.37-0.83,0.56-1.09,0.56c-0.26,0-0.41-0.12-0.45-0.35c-0.03-0.23-0.06-0.94-0.08-2.14c-0.02-1.19-0.1-2.42-0.23-3.68
			c-0.13-1.26-0.2-1.94-0.22-2.04c-0.01-0.1,0.39,0.15,1.21,0.74c0.49,0.35,1.19,0.86,2.12,1.52
			C509.44,234.89,510.02,235.3,510.27,235.46z M518.38,232.11c0.22,0.13,0.31,0.22,0.26,0.26c-0.15,0.15-1.14,0.5-2.95,1.03
			c-0.68,0.15-1.28,0.35-1.79,0.6c-0.51,0.24-0.81,0.34-0.91,0.28c-0.1-0.06-0.19-0.39-0.28-1.01c-0.09-0.62-0.12-1.12-0.08-1.51
			c0.03-0.39,0.07-1.24,0.12-2.57l-0.03-1.75l0.73,0.4c0.44,0.31,1.37,1.08,2.78,2.32L518.38,232.11z M512.85,241.35l1.32,1.32
			c0.86,0.86,1.27,1.36,1.24,1.51c-0.03,0.14-3.21,3.2-9.52,9.15l-1.66,1.52l0.56,1.36l2.45,2.45c1.85,1.85,4.59,4.37,8.21,7.55
			c2.1,1.92,3.32,2.89,3.68,2.91c0.35,0.02,0.62-0.01,0.81-0.08c0.19-0.08,0.57-0.4,1.14-0.98l6.26-6.13l0.56-1.03
			c0.38-0.68,0.57-1.15,0.6-1.39c0.02-0.24,0.1-0.43,0.23-0.56c0.13-0.13,0.31-0.15,0.53-0.07l1.52,1.19
			c0.84,0.66,1.42,1.09,1.76,1.29l0.3,0.3l-0.56,0.43c-0.42,0.2-1.13,0.74-2.14,1.64c-1,0.89-2.58,2.47-4.73,4.73
			c-2.15,2.26-3.73,4.05-4.72,5.35c-0.57,0.71-0.91,1.07-0.99,1.09c-0.09,0.02-0.28-0.11-0.56-0.4c-0.29-0.29-0.56-0.52-0.83-0.7
			c-0.64-0.42-2.12-1.79-4.44-4.11c-0.97-0.97-1.89-1.82-2.75-2.55c-1.99-1.59-4.24-3.58-6.75-5.96c-1.79-1.79-2.97-3.06-3.54-3.81
			c-0.57-0.75-0.78-1.31-0.63-1.69c0.31-0.75,3.13-4.06,8.48-9.93c1.81-1.9,2.96-3.13,3.44-3.71L512.85,241.35z M537.05,248.4
			c0.15,0.07,0.3,0.14,0.45,0.21c0.14,0.08,0.17,0.13,0.08,0.15c-0.09,0.02-0.39,0.2-0.89,0.53c-0.93,0.79-2.47,1.55-4.64,2.25
			c-1.33,0.35-2.25,0.59-2.78,0.7c-0.53,0.11-1.21,0.17-2.05,0.17l-2.32,0.07l-4.77,4.77l1.13,2.38c0.15,0.38,0.46,0.87,0.91,1.47
			c0.45,0.61,0.83,1.06,1.14,1.37l0.63,0.63c0.18,0.18-0.46,0.29-1.92,0.33c-0.69,0.07-1.31,0.12-1.89,0.17
			c-0.84,0.22-1.37,0.18-1.59-0.13c-0.27-0.62-0.11-2.01,0.46-4.17l0.33-1.26l-1.42,1.29c-1.9,1.9-3.12,2.79-3.68,2.68
			c-0.04-0.04-0.22-0.29-0.53-0.73l-1.46-2.05c-1.04-1.48-1.49-2.28-1.36-2.42c0.13-0.13,0.66,0.05,1.57,0.55
			c0.92,0.5,1.53,0.75,1.85,0.76c0.32,0.01,0.8-0.19,1.44-0.61c0.49-0.4,1.15-1.06,1.99-1.99c1.54-1.77,2.63-3.15,3.26-4.16
			c0.63-1,0.92-1.86,0.88-2.57l0.13-0.46l3.44,1.06c0.73,0.2,1.33,0.33,1.8,0.38c0.47,0.06,1.2-0.01,2.19-0.2
			c0.98-0.19,1.51-0.32,1.59-0.4c0.08-0.08-0.51-0.7-1.77-1.87c-1.94-1.85-3.87-3.48-5.79-4.87l-0.96-0.63
			c-0.04-0.04,0.45-1.18,1.49-3.41c0.42-0.95,0.67-1.38,0.76-1.29c0.09,0.09,0.42,0.68,0.99,1.79c1.19,1.9,2.19,3.24,2.98,4.04
			c0.31,0.31,0.82,0.74,1.54,1.31c0.72,0.56,1.96,1.39,3.72,2.47C535.77,247.8,536.79,248.36,537.05,248.4z M519.01,245.66
			l-0.63,2.68c-0.16,0.99-0.34,1.84-0.55,2.53c-0.21,0.7-0.35,0.97-0.41,0.81c-0.31-0.62-0.99-1.79-2.05-3.51l-0.7-1.03l0.63-0.3
			c0.57-0.4,1.6-0.74,3.08-1.03L519.01,245.66z M516.49,253.6c0.53,0.31,0.87,0.54,1.03,0.7l-0.3,0.17c-0.22,0-0.36,0.03-0.43,0.1
			l-1.42,0.3c-0.71,0.26-1.6,0.58-2.68,0.96l-1.39,0.4l-0.23-0.89c-0.04-0.35-0.09-1.16-0.15-2.43c-0.06-1.27-0.04-1.95,0.05-2.04
			c0.09-0.09,0.33-0.01,0.73,0.23c0.4,0.24,0.88,0.5,1.46,0.76C514.78,252.64,515.9,253.23,516.49,253.6z M525.2,254.69
			c1.21-0.68,1.87-0.98,1.95-0.89c0.09,0.09,0.23,0.78,0.41,2.07c0.19,1.29,0.24,1.98,0.17,2.05c-0.08,0.08-0.5,0.05-1.27-0.08
			c-0.77-0.13-1.53-0.31-2.28-0.53c-0.57-0.13-1.14-0.32-1.69-0.56c-0.55-0.24-0.83-0.39-0.84-0.45c-0.01-0.05,0.28-0.19,0.86-0.4
			C523.09,255.69,523.99,255.29,525.2,254.69z"/>
	</g>
</g>
</svg>
