<?xml version="1.0" encoding="utf-8"?>
<!-- Generator: Adobe Illustrator 26.5.0, SVG Export Plug-In . SVG Version: 6.00 Build 0)  -->
<svg version="1.1" id="_图层_1" xmlns="http://www.w3.org/2000/svg" xmlns:xlink="http://www.w3.org/1999/xlink" x="0px" y="0px"
	 viewBox="0 0 1557.5 1369.4" style="enable-background:new 0 0 1557.5 1369.4;" xml:space="preserve">
<style type="text/css">
	.st0{fill:#00C1DE;}
	.st1{clip-path:url(#SVGID_00000152960230342790175830000017663455287318649785_);}
	.st2{fill:#55C0D3;}
</style>
<g>
	<g>
		<path class="st0" d="M628.3,534.5h141.3c1,0,1.5,0.5,1.5,1.5v141.3c0,1-0.5,1.5-1.5,1.5H628.3c-1,0-1.5-0.5-1.5-1.5V536
			C626.8,535,627.3,534.5,628.3,534.5L628.3,534.5z M628.3,534.5"/>
		<path class="st0" d="M783.1,534.5h143.1c0.4,0,0.6,0.2,0.6,0.6v143.1c0,0.4-0.2,0.6-0.6,0.6H783.1c-0.4,0-0.6-0.2-0.6-0.6V535.1
			C782.4,534.7,782.7,534.5,783.1,534.5L783.1,534.5z M783.1,534.5"/>
		<path class="st0" d="M628.3,690.2h141.3c1,0,1.5,0.5,1.5,1.5V833c0,1-0.5,1.5-1.5,1.5H628.3c-1,0-1.5-0.5-1.5-1.5V691.7
			C626.8,690.7,627.3,690.2,628.3,690.2L628.3,690.2z M628.3,690.2"/>
	</g>
	<path class="st0" d="M783.1,690.2h143.1c0.4,0,0.6,0.2,0.6,0.6v143.1c0,0.4-0.2,0.6-0.6,0.6H783.1c-0.4,0-0.6-0.2-0.6-0.6V690.8
		C782.4,690.4,782.7,690.2,783.1,690.2L783.1,690.2z M783.1,690.2"/>
</g>
<g>
	<g>
		<defs>
			<rect id="SVGID_1_" x="375.9" y="282.9" width="802.6" height="803.4"/>
		</defs>
		<clipPath id="SVGID_00000139273731564237580060000016768351428341592755_">
			<use xlink:href="#SVGID_1_"  style="overflow:visible;"/>
		</clipPath>
		<g style="clip-path:url(#SVGID_00000139273731564237580060000016768351428341592755_);">
			<path class="st0" d="M806.8,1085.3h-59.5c-3.9,0-7.3-2.9-8.1-6.5l-16.5-81.2c-18.8-3.4-37.3-8.1-55.4-14.9l-54.6,62.2
				c-2.6,2.9-7.1,3.7-10.4,1.8l-51.7-29.8c-3.4-2.1-5-6-3.7-9.9l26.6-78.4c-14.9-12.3-28.5-25.9-40.7-40.7l-78.4,26.4
				c-3.7,1.3-7.8-0.3-9.9-3.7L415,858.8c-1.8-3.4-1.3-7.8,1.8-10.2l61.9-54.3c-6.5-18-11.5-36.6-14.9-55.6l-81-16.2
				c-3.9-0.8-6.5-4.2-6.5-8.1v-59.5c0-3.9,2.9-7.3,6.5-8.1l81-16.2c3.4-19.1,8.4-37.6,14.9-55.6l-61.9-54.6
				c-2.9-2.6-3.7-7.1-1.8-10.4l29.5-51.5c2.1-3.4,6-5,9.9-3.7l78.6,26.4c12.3-14.6,25.9-28.2,40.7-40.5l-26.6-78.4
				c-1.3-3.7,0.3-7.8,3.7-9.9l51.7-29.8c3.4-2.1,7.8-1.3,10.4,1.8l54.6,62.2c18-6.5,36.6-11.5,55.4-14.9l16.2-81.2
				c0.8-3.9,4.2-6.8,8.1-6.8h59.8c3.9,0,7.3,2.9,8.1,6.5l16.5,81.2c18.8,3.1,37.3,8.1,55.4,14.6l54.6-62.2c2.6-2.9,7.1-3.7,10.4-1.8
				l51.7,29.8c3.4,2.1,5,6,3.7,9.9L981,440.2c14.6,12.3,28.5,25.9,40.7,40.5l78.4-26.4c3.7-1.3,7.8,0.3,9.9,3.7l29.8,51.5
				c2.1,3.4,1.3,7.8-1.6,10.4l-61.9,54.3c6.8,18,11.8,36.8,14.9,55.9l80.7,16.2c3.9,0.8,6.8,4.2,6.8,8.1v59.8c0,3.9-2.9,7.3-6.5,8.1
				l-80.7,16.2c-3.1,19.1-8.4,37.6-14.9,55.6l61.9,54.3c2.9,2.6,3.7,7.1,1.8,10.4l-29.8,51.7c-2.1,3.4-6,5-9.9,3.7l-78.4-26.4
				c-12.3,14.6-25.9,28.5-40.7,40.7l26.4,78.4c1.3,3.7-0.3,7.8-3.7,9.9l-51.7,29.8c-3.4,1.8-7.8,1.3-10.4-1.8l-54.6-62.2
				c-18,6.5-36.6,11.5-55.4,14.9l-16.5,81.2C814.1,1082.7,810.7,1085.3,806.8,1085.3L806.8,1085.3z M754.1,1068.8h46l15.4-77.3V991
				c-0.3-4.4,2.4-8.1,6.5-8.9c21.9-3.4,43.4-8.9,64-17c3.1-1.3,6.8-0.3,9.1,2.4l53.8,61.4l40-23l-25.3-75c0,0,0-0.3-0.3-0.3
				c-2.4-3.7-2.1-8.1,1.3-11c17.2-13.8,33.2-29.5,47-46.8c2.1-2.6,5.7-3.7,9.1-2.6l77.3,26.1l23-40l-61.1-53.5
				c-2.6-2.4-3.4-6-2.4-9.1c8.1-20.4,13.6-41.8,17-63.5c0.5-3.4,3.1-6.3,6.5-6.8l79.7-15.9v-46l-79.7-15.9c-3.4-0.8-6-3.4-6.5-6.8
				c-3.4-21.7-9.1-43.1-17-63.5c-1.3-3.1-0.3-6.8,2.4-9.1l61.1-53.8l-23-39.7l-76,25.6c-3.4,1.8-7.8,1-10.2-2.1
				c-13.8-17.2-29.8-33.2-47.3-47c-1.8-1.6-2.9-3.7-3.1-6c0-2.4,0.8-4.7,2.4-6.3l24.8-73.7l-40-23l-52,59.3l0,0
				c-1.8,3.9-6,6-10.2,4.4c-20.9-8.1-42.8-14.1-65-17.2c-2.6-0.3-4.7-1.8-6-4.2c-1.3-2.1-1.3-5-0.5-7.3l-15.1-75.2h-46.2L738.1,377
				c0,0.3,0,0.5,0.3,1c0.3,4.4-2.1,8.1-6.5,8.9c-22.2,3.1-44.1,9.1-65,17.2c-2.1,0.8-4.7,0.8-6.8-0.3c-2.1-1-3.7-2.9-4.2-5.2
				l-51.5-58.5l-40,23l25.3,75c0,0,0,0.3,0.3,0.3c2.4,3.7,2.1,8.4-1.3,11c-17.2,13.8-33.2,29.5-47,47c-2.6,3.1-7.3,4.2-10.7,1.8
				l-75.5-25.3l-23,39.7l61.1,53.8c2.6,2.4,3.4,6,2.4,9.1c-7.8,20.4-13.6,41.8-17,63.5c-0.5,3.4-3.1,6.3-6.5,6.8l-79.9,15.9v46
				l79.9,16.2c3.4,0.8,6,3.4,6.5,6.8c3.4,21.7,8.9,42.8,17,63.2c1.3,3.1,0.3,7.1-2.4,9.1l-61.1,53.8l23,40l77.3-26.1
				c3.4-1,6.8,0,9.1,2.6c13.8,17.2,29.5,32.9,47,46.8c1.8,1.3,2.9,3.4,3.1,5.7c0.3,2.4-0.5,4.4-2.1,6.3l-25.1,74.2l40,23l53.5-61.6
				c2.4-2.6,6-3.4,9.1-2.4c20.6,8.1,42,13.6,64,17c2.4,0.3,4.4,1.6,5.7,3.7s1.8,4.4,1,6.5L754.1,1068.8L754.1,1068.8z"/>
		</g>
	</g>
	<path class="st2" d="M776.5,937.5C637.3,937.5,524,824.1,524,684.9c0-139.7,113.4-253.3,252.6-253.3
		c139.5,0,253.1,113.6,253.1,253.3C1029.6,824.1,916,937.5,776.5,937.5L776.5,937.5L776.5,937.5z M776.5,448
		c-130.1,0-236.1,106.3-236.1,236.9c0,130.1,106,236.1,236.1,236.1c130.6,0,236.6-106,236.6-236.1C1013.1,554.3,906.8,448,776.5,448
		L776.5,448L776.5,448z"/>
</g>
<path class="st0" d="M232,829.9l-90.8-194.6l337.9-461c22.8-31.4,60.4-48.9,99-46.2l496.2-85.9l-544-16.6
	c-38.7-2.7-76.3,14.8-99,46.2L28.7,617l134.9,244.8L232,829.9L232,829.9L232,829.9z M1322.4,529.3l93.9,201.5l-337.9,461
	c-22.8,31.4-60.4,48.9-99,46.2l-496.2,85.9l545.6,20c38.7,2.7,76.3-14.8,99-46.2l401-548.6l-138.1-251.6L1322.4,529.3L1322.4,529.3z
	"/>
</svg>
